<svg width="700" height="700" viewBox="0 0 1038 1024" fill="none" xmlns="http://www.w3.org/2000/svg">
<path fill-rule="evenodd" clip-rule="evenodd" d="M388.214 917.717C386.161 916.162 384.007 914.522 381.239 913.939C379.224 913.516 376.803 913.907 375.367 914.984C374.844 915.374 374.047 915.085 373.962 914.481C373.853 913.702 372.648 913.54 372.303 914.262C366.671 925.997 368.962 939.328 372.635 951.645C375.431 961.017 378.976 970.44 380.225 979.947C381.111 986.68 387.186 991.911 394.759 992.313L449.861 995.236C457.443 995.638 465.711 995.897 471.95 992.591C472.203 992.456 472.362 992.214 472.376 991.951C472.958 981.737 470.404 972.294 470.986 962.081C439.079 952.042 412.857 936.374 388.214 917.717Z" fill="#F67E7D"/>
<path fill-rule="evenodd" clip-rule="evenodd" d="M505.138 777.758C501.52 739.967 494.007 702.513 486.503 665.112C483.914 652.214 481.239 639.091 474.143 627.401C467.046 615.711 454.722 605.462 439.212 602.801C432.986 601.733 426.344 601.949 420.472 603.963C415.094 605.807 410.583 609.059 406.714 612.652C391.448 626.838 386.735 650.699 401.888 664.417C414.704 701.403 429.448 737.931 446.055 773.873C436.742 777.62 428.57 784.035 422.753 791.616C413.271 803.972 409.195 819.011 407.113 833.878C405.03 848.743 404.751 863.8 401.957 878.573C400.877 884.281 399.492 890.292 398.984 896.159C393.952 901.657 382.238 900.808 376.411 906.372C373.014 909.614 372.335 914.56 373.445 918.888C374.555 923.217 377.201 927.086 379.818 930.861C389.234 944.455 399.279 958.366 411.457 969.989C411.199 970.483 411.064 970.776 411.064 970.776L416.543 975.626H417.768H459.156H468.17C474.072 975.626 477.508 969.638 474.023 965.382C469.359 959.687 461.377 953.248 448.232 950.707C447.929 950.649 447.639 950.615 447.34 950.563C442.557 940.443 438.271 930.211 436.185 919.433C448.448 879.273 498.343 810.657 500.673 807.215C506.618 798.446 506.096 787.774 505.138 777.758Z" fill="#F2B592"/>
<path fill-rule="evenodd" clip-rule="evenodd" d="M443.684 942.517C441.851 936.081 443.684 942.517 433.162 948.821C429.395 951.078 425.156 952.564 421.277 954.594C418.716 955.934 415.562 955.904 413.044 954.501C406.18 950.673 400.878 944.603 398.536 937.674C395.314 928.136 397.57 917.863 396.522 907.942C396.433 907.805 396.419 907.573 396.44 907.27C396.379 906.752 396.348 905.999 396.498 906.728C396.598 905.901 396.231 902.949 395.665 900.576C395.262 898.888 393.276 897.916 391.46 898.507C384.109 900.901 376.737 903.247 372.955 911.386C369.127 919.614 373.975 928.54 377.539 936.862C382.485 948.409 385.688 960.55 387.039 972.854C387.691 978.796 393.484 985.32 399.833 987.188C406.251 989.075 413.188 988.614 419.921 988.133C425.566 987.729 432.702 983.932 435.607 979.588C442.207 969.722 452.113 961.635 463.735 956.699C464.059 953.754 444.965 947.016 443.684 942.517Z" fill="#F67E7D"/>
<path fill-rule="evenodd" clip-rule="evenodd" d="M396.522 907.941C396.523 907.945 396.523 907.948 396.524 907.95C396.778 908.321 396.656 907.499 396.498 906.727C396.474 906.923 396.452 907.107 396.441 907.269C396.468 907.494 396.498 907.717 396.522 907.941Z" fill="#F67E7D"/>
<path fill-rule="evenodd" clip-rule="evenodd" d="M579.881 897.878C586.517 899.911 591.029 905.673 592.861 911.723C594.694 917.773 594.28 924.161 593.851 930.417C593.461 936.12 593.07 941.825 592.679 947.529C591.22 946.198 590.255 944.502 589.369 942.815C582.115 928.974 578.722 913.534 579.584 898.271L579.913 899.756" fill="#F67E7D"/>
<path fill-rule="evenodd" clip-rule="evenodd" d="M596.201 966.591C596.022 965.173 595.665 963.605 594.357 962.787C593.33 962.146 591.984 962.142 590.73 962.163C576.526 962.402 562.322 962.64 548.116 962.877C545.918 962.915 538.748 967.439 539.998 969.057C539.998 969.057 542.254 977.184 542.615 980.957C542.692 981.776 542.799 982.656 543.408 983.272C544.04 983.912 545.051 984.106 545.989 984.262C561.685 986.882 578.736 989.012 592.943 982.5C593.683 982.161 594.434 981.783 594.949 981.197C595.58 980.48 595.782 979.543 595.936 978.643C596.616 974.658 596.704 970.594 596.201 966.591Z" fill="#F67E7D"/>
<path fill-rule="evenodd" clip-rule="evenodd" d="M596.167 960.822C593.268 938.925 588.609 917.249 582.321 896.023C582.107 866.954 581.663 837.847 578.082 808.964C576.063 792.687 573.048 776.459 572.839 760.084C572.203 710.004 597.465 658.073 577.178 611.384L574.537 613.272C553.47 600.196 521.877 611.103 508.956 630.9C496.035 650.699 497.84 675.616 504.699 697.698C509.039 711.679 515.239 725.261 517.72 739.598C522.182 765.395 514.326 791.917 518.501 817.75C521.751 837.844 532.125 856.539 536.034 876.537C537.495 884.015 543.245 899.893 546.287 908.49C541.866 926.607 539.998 945.301 540.756 963.9C541.013 970.216 546.986 973.055 553.5 973.789C568.461 975.475 574.613 973.939 590.402 970.797C591.806 970.518 594.29 967.073 595.265 966.059C596.555 964.717 596.407 962.638 596.167 960.822Z" fill="#F2B592"/>
<path fill-rule="evenodd" clip-rule="evenodd" d="M596.167 960.822C593.268 938.925 588.609 917.249 582.321 896.023C582.107 866.954 581.663 837.847 578.082 808.964C576.063 792.687 573.048 776.459 572.839 760.084C572.203 710.004 597.465 658.073 577.178 611.384L574.537 613.272C553.47 600.196 521.877 611.103 508.956 630.9C496.035 650.699 497.84 675.616 504.699 697.698C509.039 711.679 515.239 725.261 517.72 739.598C522.182 765.395 514.326 791.917 518.501 817.75C521.751 837.844 532.125 856.539 536.034 876.537C537.495 884.015 543.245 899.893 546.287 908.49C541.866 926.607 539.998 945.301 540.756 963.9C541.013 970.216 546.986 973.055 553.5 973.789C568.461 975.475 574.613 973.939 590.402 970.797C591.806 970.518 594.29 967.073 595.265 966.059C596.555 964.717 596.407 962.638 596.167 960.822Z" fill="black" fill-opacity="0.12"/>
<path fill-rule="evenodd" clip-rule="evenodd" d="M596.78 949.171C596.093 945.592 595.367 941.913 593.131 938.813C588.186 931.957 577.472 929.924 567.944 929.89C557.466 929.854 545.521 932.312 540.713 940.147C539.151 942.693 538.521 945.564 538.01 948.397C536.698 955.676 536.139 963.511 540.241 970.013C540.698 970.737 544.92 975.061 545.609 974.482L541.089 969.252C541.282 962.569 548.228 957.077 555.872 955.263C563.517 953.45 571.678 954.55 579.432 955.993C586.552 957.32 594.356 962.787 596.522 971.144C595.639 966.537 597.663 953.778 596.78 949.171Z" fill="#F67E7D"/>
<path fill-rule="evenodd" clip-rule="evenodd" d="M613.18 655.334C610.112 640.198 587.047 563.099 589.737 550.24C590.634 545.954 592.902 540.747 586.684 538.394C585.828 538.07 584.895 537.873 583.956 537.729C528.401 529.302 471.133 533.22 414.717 537.621C412.582 537.786 411.927 539.911 413.741 540.777C416.86 551.274 413.316 562.248 408.529 572.385C404.632 580.633 399.901 588.655 394.388 596.355C371.762 627.964 336.226 653.929 316.054 686.261C313.293 690.69 314.883 695.98 319.821 699.126L348.553 717.429C372.187 732.485 396.115 747.688 423.779 758.057C451.443 768.424 483.646 773.643 513.49 767.626C541.589 761.961 564.662 747.163 589.955 736.263C598.186 732.716 607.311 729.51 616.545 728.764C622.74 728.264 627.062 723.84 626.116 719.164C621.804 697.888 617.492 676.61 613.18 655.334Z" fill="#DD5252"/>
<path fill-rule="evenodd" clip-rule="evenodd" d="M348.255 707.418C347.295 703.449 346.419 698.936 348.031 694.993C350.879 688.023 359.207 689.561 365.611 690.325C371.901 691.074 378.774 691.197 383.41 686.625C387.925 682.176 388.145 675.572 388.312 669.915C388.557 661.666 390.075 653.242 396.079 646.643C402.769 639.289 413.211 639.039 421.481 633.994C427.792 630.143 431.461 624.156 434.1 617.902C437.157 610.665 439.207 603.204 443.698 596.511C449.619 587.687 458.262 580.647 468.173 575.508C470.25 574.431 468.361 572.675 466.588 573.594C453.849 580.199 443.029 589.695 436.975 601.83C433.986 607.824 432.357 614.273 429.458 620.3C425.382 628.778 419.295 633.099 409.705 636.265C397.169 640.406 388.973 647.514 385.955 659.443C384.439 665.437 385.231 671.518 384.135 677.534C383.437 681.373 381.941 685.589 377.713 687.453C372.982 689.538 367.115 687.885 362.178 687.387C356.271 686.79 349.718 687.401 346.058 692.12C342.458 696.761 343.453 703.094 344.705 708.268C345.066 709.762 348.624 708.937 348.255 707.418Z" fill="#F67E7D"/>
<path fill-rule="evenodd" clip-rule="evenodd" d="M403.679 745.266C402.35 732.671 419.235 728.694 429.075 724.155C436.485 720.736 443.152 716.135 448.633 710.509C454.582 704.404 459.103 697.12 461.376 689.262C464.094 679.863 462.255 669.598 467.508 660.803C475.83 646.867 494.143 640.34 501.754 625.82C506.427 616.902 507.319 606.639 508.97 597.024C510.945 585.539 512.919 574.054 514.893 562.568C515.106 561.329 511.53 561.873 511.342 562.963C509.368 574.448 507.393 585.934 505.421 597.421C503.594 608.047 502.756 619.813 496.383 629.226C487.476 642.379 469.355 648.997 462.689 663.573C458.685 672.325 460.321 682.168 457.355 691.18C454.348 700.305 448.269 708.531 440.396 714.895C432.09 721.612 422.04 724.439 412.543 729.319C405.568 732.905 399.316 738.419 400.13 746.115C400.239 747.163 403.806 746.479 403.679 745.266Z" fill="#F67E7D"/>
<path fill-rule="evenodd" clip-rule="evenodd" d="M522.329 757.297C528.979 753.413 533.98 747.664 535.765 740.663C537.729 732.956 534.929 726.933 530.913 720.226C526.366 712.633 526.192 705.801 530.954 698.259C535.066 691.746 540.946 686.277 545.637 680.113C549.828 674.607 552.99 668.694 553.054 661.919C553.15 651.757 547.603 642.394 546.252 632.417C544.816 621.819 547.486 610.742 548.963 600.244C550.542 589.024 552.122 577.804 553.701 566.585C553.843 565.587 550.305 566.181 550.178 567.072C548.697 577.59 547.217 588.109 545.736 598.627C544.402 608.116 542.346 617.763 542.336 627.351C542.326 637.156 546.665 645.946 548.658 655.429C550.633 664.825 548.264 672.466 542.383 680.217C535.078 689.844 521.196 700.429 523.883 713.373C525.549 721.401 532.824 727.135 532.917 735.692C533.01 744.432 527.618 752.304 519.553 757.014C518.007 757.918 521.56 757.746 522.329 757.297Z" fill="#F67E7D"/>
<path fill-rule="evenodd" clip-rule="evenodd" d="M592.096 733.084C594.803 723.078 607.997 715.488 600.243 704.721C595.851 698.623 591.558 693.451 590.051 686.133C588.413 678.177 590.498 671.156 593.091 663.616C595.324 657.115 596.084 651.381 593.175 644.94C590.042 638.003 586.498 631.457 584.345 624.178C580.014 609.533 579.192 594.295 578.387 579.237C578.339 578.364 574.777 578.966 574.837 580.088C575.607 594.497 576.393 609.056 580.254 623.123C582.184 630.154 585.093 636.676 588.391 643.263C592.407 651.283 591.809 657.663 588.885 665.955C584.563 678.206 584.817 690.285 593.148 701.248C597.837 707.418 601.421 711.612 597.088 718.947C594.184 723.865 590.052 728.018 588.56 733.531C588.282 734.559 591.826 734.075 592.096 733.084Z" fill="#F67E7D"/>
<path fill-rule="evenodd" clip-rule="evenodd" d="M520.192 284.438C519.433 284.081 518.65 283.662 518.257 282.981C517.925 282.406 517.923 281.731 517.926 281.085C517.972 274.131 518.016 267.178 518.059 260.224C505.361 256.446 492.198 253.912 478.884 252.684C476.569 252.47 471.446 249.143 471.446 249.143C471.738 259.117 471.545 269.102 470.867 279.061C463.717 280.107 456.472 280.628 449.227 280.614C454.071 285.217 458.917 289.82 463.763 294.421C474.863 304.964 487.597 316.223 503.767 317.106C512.621 317.588 521.646 314.623 528.04 309.129C534.434 303.634 538.103 295.694 537.908 287.77C531.809 288.152 525.6 286.984 520.192 284.438Z" fill="#F2B592"/>
<path fill-rule="evenodd" clip-rule="evenodd" d="M471.191 254.802C470.756 255.708 471.03 256.749 471.33 257.698C474.063 266.35 478.66 274.796 487.308 280.021C491.358 282.467 496.13 283.876 501.018 283.824C503.446 283.797 505.961 283.437 508.122 282.403C509.585 281.703 510.854 280.71 511.949 279.596C518.082 273.358 518.337 264.234 518.27 255.93C518.266 255.591 518.248 255.216 517.984 254.972C517.775 254.779 517.461 254.716 517.166 254.664C502.977 252.116 488.488 250.91 474.018 251.074C472.861 251.087 471.641 251.125 470.662 251.673C469.683 252.222 469.097 253.47 469.748 254.323" fill="black" fill-opacity="0.12"/>
<path fill-rule="evenodd" clip-rule="evenodd" d="M428.574 180.463C421.747 173.374 408.202 173.49 400.385 179.71C392.569 185.928 390.483 196.674 393.835 205.532C399.63 220.842 428.762 229.896 435.614 210.57C434.567 213.525 442.145 224.993 443.882 228.117C447.511 234.642 451.989 240.748 458.111 245.63C470.805 255.75 488.193 260.991 504.802 262.992C526.309 265.585 549.161 262.705 567.403 252.203C586.928 240.964 599.696 221.763 604.719 201.504C609.741 181.245 607.574 159.988 601.889 139.869C599.221 130.425 595.671 120.95 589.019 113.233C583.228 106.517 575.346 101.45 567.012 97.3965C537.167 82.8806 499.14 81.1337 469.232 95.5457C436.308 111.409 416.893 147.16 425.489 180.01C426.687 179.405 427.758 178.6 428.634 177.652" fill="#F2B592"/>
<path fill-rule="evenodd" clip-rule="evenodd" d="M402.734 191.16C410.07 185.821 417.467 190.979 423.078 195.504C423.254 195.12 423.432 194.736 423.607 194.353C421.029 195.7 418.722 197.271 416.776 199.31C415.412 200.74 412.293 203.885 412.848 205.94C413.942 209.994 422.804 211.321 426.611 211.75C428.052 211.912 430.344 210.126 427.965 209.858C423.945 209.405 415.339 207.853 417.745 202.369C419.057 199.378 422.899 196.923 425.837 195.386C426.184 195.206 426.829 194.607 426.366 194.235C418.439 187.842 409.213 183.759 399.865 190.564C398.272 191.722 401.788 191.85 402.734 191.16Z" fill="#F2B592"/>
<path fill-rule="evenodd" clip-rule="evenodd" d="M402.734 191.16C410.07 185.821 417.467 190.979 423.078 195.504C423.254 195.12 423.432 194.736 423.607 194.353C421.029 195.7 418.722 197.271 416.776 199.31C415.412 200.74 412.293 203.885 412.848 205.94C413.942 209.994 422.804 211.321 426.611 211.75C428.052 211.912 430.344 210.126 427.965 209.858C423.945 209.405 415.339 207.853 417.745 202.369C419.057 199.378 422.899 196.923 425.837 195.386C426.184 195.206 426.829 194.607 426.366 194.235C418.439 187.842 409.213 183.759 399.865 190.564C398.272 191.722 401.788 191.85 402.734 191.16Z" fill="black" fill-opacity="0.12"/>
<path fill-rule="evenodd" clip-rule="evenodd" d="M471.015 104.138C465.628 94.9251 455.423 88.3917 444.17 85.8874C437.807 78.0647 437.502 65.9841 437.821 56.5474C437.837 56.0724 434.303 56.473 434.271 57.3968C433.968 66.3333 434.344 77.2842 439.495 85.0851C433.702 84.3923 427.774 84.7732 422.191 86.4106C409.253 90.2076 398.972 99.9108 394.163 111.294C389.355 122.676 389.738 135.526 393.905 147.111C398.329 159.413 407.999 171.143 421.935 174.602L419.746 166.924C421.979 174.395 424.784 181.728 428.154 188.851C430 192.757 433.375 197.292 438.054 196.569C437.6 185.933 437.144 175.297 436.689 164.661C436.426 158.461 436.167 152.187 437.59 146.113C441.27 130.407 455.424 118.526 469.62 108.696C470.538 108.06 471.533 107.319 471.679 106.29C471.785 105.54 471.405 104.809 471.015 104.138Z" fill="#F67E7D"/>
<path fill-rule="evenodd" clip-rule="evenodd" d="M656.411 128.046C649.96 120.922 640.911 116.044 631.591 112.218C627.589 110.573 623.106 108.748 621.491 105.084C619.277 100.063 623.618 94.8145 624.926 89.5454C626.866 81.7325 621.621 73.5496 614.177 69.0981C606.731 64.6459 597.527 63.2634 588.589 62.7337C577.878 62.0977 567.094 62.5487 556.49 64.0373C571.025 57.5718 587.835 55.8161 603.926 59.322C605.232 59.6065 608.121 57.8684 606.045 57.4163C586.734 53.2078 566.515 56.1281 549.737 65.1165C547.951 65.4455 546.171 65.8024 544.399 66.192C552.275 59.6438 558.669 51.6798 563.086 42.9168C565.126 38.8692 566.615 33.7697 563.538 30.2835C559.841 26.0947 552.488 27.2615 546.905 29.1496C524.822 36.6188 504.961 49.263 489.852 65.474C493.826 54.6034 496.421 43.3306 497.572 31.9407C498.036 27.3315 498.094 22.2123 494.765 18.6682C491.315 14.997 485.042 14.2462 479.973 15.8147C474.905 17.3832 470.856 20.8397 467.414 24.5163C434.613 59.5639 450.302 107.881 491.641 129.891C505.78 137.419 521.186 142.817 536.006 149.221C554.798 157.343 577.675 167.258 592.62 180.569C603.257 190.046 599.041 208.313 619.853 209.299C624.385 209.515 629.428 208.175 631.697 204.665C635.639 198.566 629.114 190.35 632.461 183.974C633.713 181.593 636.154 179.91 638.532 178.357C648.784 171.662 660.305 164.649 663.666 153.707C666.381 144.872 662.861 135.171 656.411 128.046Z" fill="#F67E7D"/>
<path fill-rule="evenodd" clip-rule="evenodd" d="M503.502 95.5927C501.845 106.903 516.975 110.413 526.64 108.249C535.643 106.234 543.572 101.77 552.768 100.165C561.468 98.6465 576.077 96.9445 578.212 107.279C580.318 117.473 574.004 130.094 587.898 135.358C594.74 137.95 602.22 136.881 609.372 137.952C619.092 139.409 625.88 146.187 627.127 154.798C627.325 156.165 630.888 155.398 630.679 153.948C628.771 140.793 616.629 135.8 603.232 135.235C594.356 134.86 584.122 133.69 582.129 124.434C580.94 118.914 582.69 113.258 581.964 107.705C580.291 94.8769 563.529 96.1848 552.874 97.9766C545.327 99.2452 538.7 102.079 531.606 104.543C525.74 106.582 519.513 108.036 513.655 105.292C509.3 103.253 506.421 99.8713 507.088 95.3158C507.312 93.7812 503.699 94.242 503.502 95.5927Z" fill="#DD5252"/>
<path fill-rule="evenodd" clip-rule="evenodd" d="M639.869 141.936C650.472 153.972 655.626 168.72 654.513 184.007C654.392 185.678 658.007 185.252 658.114 183.78C659.256 168.096 653.999 152.878 643.114 140.524C642.095 139.366 638.722 140.636 639.869 141.936Z" fill="#DD5252"/>
<path fill-rule="evenodd" clip-rule="evenodd" d="M600.59 511.362C602.249 505.33 600.675 499.02 599.462 492.905C597.004 480.51 595.432 468.332 594.354 456.218C591.959 429.321 592.004 402.748 590.231 374.852C589.252 359.46 586.797 344.178 582.873 329.165C579.8 317.405 575.758 305.232 566.671 296.22C561.704 291.294 555.57 287.641 548.925 284.676C542.007 281.59 534.535 279.248 527.227 277.009C528.837 290.615 509.413 300.05 494.783 296.006C480.231 291.981 470.619 279.82 463.279 267.882C462.254 268.253 461.231 268.624 460.207 268.995C435.14 278.083 410.074 287.171 385.007 296.26C381.161 297.654 377.039 299.256 374.968 302.471C373.346 304.99 373.293 308.048 373.335 310.953C373.701 336.277 377.995 361.554 386.059 385.835C391.623 402.586 398.969 418.864 403.608 435.838C410.485 461.008 404.323 489.991 405.072 515.893C405.434 528.451 406.388 545.393 403.016 559.201C401.461 565.57 406.809 571.573 414.105 571.685C467.204 572.496 533.751 560.01 586.362 563.728C593.978 564.266 600.05 558.159 598.537 551.47C596.001 540.257 593.278 527.316 596.84 519.916C598.198 517.1 599.772 514.34 600.59 511.362Z" fill="#5A819E"/>
<path fill-rule="evenodd" clip-rule="evenodd" d="M636.781 394.328C632.241 371.211 615.896 350.822 604.054 329.514C597.206 317.189 591.479 303.888 580.407 294.324C572.173 287.212 559.752 282.932 548.924 284.677C555.569 287.642 561.704 291.294 566.671 296.221C575.758 305.231 579.8 317.405 582.872 329.165C586.282 342.207 588.579 355.452 589.766 368.796C576.09 370.609 562.414 372.421 548.739 374.233C542.716 375.031 536.633 375.842 530.963 377.824C517.453 382.544 507.763 393.378 500.891 404.791C496.385 412.275 492.731 420.554 493.4 429.031C494.069 437.506 500.077 446.108 509.299 448.186C507.442 449.541 508.422 452.523 510.464 453.311L508.096 452.958C527.265 460.256 547.686 464.925 568.424 466.75C587.223 468.405 607.64 467.317 622.687 457.116C635.506 448.425 642.569 433.894 642.763 419.52C642.88 410.853 640.66 402.291 636.781 394.328Z" fill="#6CC2BD"/>
<path fill-rule="evenodd" clip-rule="evenodd" d="M552.718 384.746C542.982 369.423 520.857 361.367 501.906 366.245C493.331 368.453 485.714 372.909 477.421 375.856C467.761 379.288 457.181 380.63 446.834 379.735C444.174 379.505 441.409 379.087 439.269 377.655C434.748 374.632 434.856 368.696 434.851 363.651C434.831 343.655 425.781 323.782 410.17 309.453C404.216 303.989 396.949 299.154 388.502 298.059C388.407 298.047 388.309 298.044 388.212 298.032C388.212 298.032 387.212 295.384 380.361 298.424C375.764 299.413 371.577 301.715 369.093 305.116C367.437 306.453 365.889 307.906 364.506 309.524C359.548 315.324 357.081 322.472 354.71 329.454C349.363 345.189 344.015 360.924 338.668 376.658C333.369 392.252 328.042 407.964 326.164 424.175C325.523 429.711 325.32 435.471 327.555 440.667C329.831 445.957 334.418 450.162 339.103 453.985C360.845 471.726 387.955 484.865 417.156 488.245C446.358 491.624 475.769 482.563 499.198 466.628C506.524 461.645 512.652 455.262 519.742 448.64C526.7 442.145 537.101 439.346 544.451 433.205C558.854 421.169 562.453 400.068 552.718 384.746Z" fill="#6CC2BD"/>
<path fill-rule="evenodd" clip-rule="evenodd" d="M421.867 557.314C477.132 548.511 532.643 540.938 588.331 534.603L421.867 557.314Z" fill="#5A819E"/>
<path fill-rule="evenodd" clip-rule="evenodd" d="M431.7 358.829C427.334 348.256 420.766 338.809 412.054 330.651C411.092 329.75 407.712 330.962 408.778 331.96C417.353 339.991 423.849 349.262 428.15 359.679C428.666 360.93 432.192 360.023 431.7 358.829Z" fill="#5A819E"/>
<path fill-rule="evenodd" clip-rule="evenodd" d="M511.609 459.593C515.707 454.361 520.933 449.847 526.743 446.142C532.289 442.605 539.02 440.668 543.613 436.03C553.161 426.386 555.682 412.87 556.228 400.466C557.097 380.641 542.515 366.999 520.83 364.449C520.008 364.351 516.751 365.597 518.547 365.808C529.823 367.134 540.342 371.437 546.715 380.139C552.319 387.789 553.137 396.247 552.408 405.241C551.351 418.271 547.161 434.239 533.252 441.013C523.389 445.817 514.596 451.834 508.1 460.127C507.807 460.501 510.99 460.382 511.609 459.593Z" fill="#5A819E"/>
<path fill-rule="evenodd" clip-rule="evenodd" d="M596.728 370.319C602.529 371.163 607.981 373.038 612.712 376.193C617.665 379.495 620.67 384.069 624.562 388.236C625.357 389.088 627.283 388.416 627.871 387.677C635.578 377.982 613.419 366.631 605.398 364.176C604.124 363.785 601.235 365.437 603.274 366.06C609.99 368.116 631.179 379.131 624.532 387.494L627.842 386.935C623.808 382.616 620.648 377.944 615.502 374.542C610.561 371.276 604.893 369.313 598.853 368.435C597.575 368.248 594.664 370.019 596.728 370.319Z" fill="#5A819E"/>
<path fill-rule="evenodd" clip-rule="evenodd" d="M414.719 542.224C462.275 527.995 514.054 552.032 560.766 532.769C563.022 531.839 560.924 531.131 559.445 531.741C513.191 550.815 460.99 526.955 413.398 541.195C411.026 541.905 413.222 542.672 414.719 542.224Z" fill="#37576B"/>
<path fill-rule="evenodd" clip-rule="evenodd" d="M453.306 284.901C464.213 298.248 477.942 313.813 498.477 313.199C513.809 312.74 527.127 303.42 533.219 291.157C533.652 290.283 530.165 290.611 529.679 291.59C522.981 305.073 506.914 314.84 490.16 310.318C475.16 306.269 465.438 294.494 456.613 283.695C455.96 282.896 452.525 283.946 453.306 284.901Z" fill="#37576B"/>
<path fill-rule="evenodd" clip-rule="evenodd" d="M383.138 403.467C376.81 405.498 370.926 408.563 365.954 412.622C360.958 416.7 356.293 421.954 354.42 427.849C353.847 429.653 352.764 433.437 355.416 434.442C357.9 435.383 360.813 433.623 361.915 431.74C365.207 426.111 369.229 421.224 374.403 416.84C380.164 411.96 386.669 407.852 393.233 403.89C393.812 403.541 393.676 403.339 393.045 403.263C392.317 403.176 391.141 403.499 390.535 403.864C380.548 409.891 370.449 416.314 363.254 425.1C361.465 427.284 359.949 429.595 358.593 432.012C358.325 432.487 357.867 432.964 357.634 433.435C357.575 433.498 357.515 433.559 357.456 433.622C358.537 433.544 358.795 433.369 358.23 433.096C358.181 432.931 357.831 432.639 357.738 432.479C357.048 431.296 357.26 429.854 357.543 428.61C358.798 423.114 362.761 418.123 367.055 414.156C371.885 409.695 377.795 406.197 384.338 404.096C384.682 403.986 385.726 403.688 385.415 403.253C385.144 402.875 383.425 403.375 383.138 403.467Z" fill="#5A819E"/>
<path fill-rule="evenodd" clip-rule="evenodd" d="M372.527 308.792C383.263 310.191 393.139 315.29 399.941 322.83C400.951 323.949 404.329 322.694 403.192 321.433C395.882 313.333 385.269 307.987 373.757 306.488C372.008 306.26 370.145 308.481 372.527 308.792Z" fill="#5A819E"/>
<path fill-rule="evenodd" clip-rule="evenodd" d="M582.782 313.378C588.169 324.658 589.339 337.236 586.094 349.153C585.688 350.646 589.314 350.259 589.687 348.895C592.97 336.829 591.787 323.949 586.331 312.528C585.674 311.153 582.154 312.066 582.782 313.378Z" fill="#5A819E"/>
<path fill-rule="evenodd" clip-rule="evenodd" d="M530.716 410.599C523.714 423.516 517.512 436.767 512.14 450.294C511.789 451.177 515.29 450.794 515.671 449.833C521.042 436.308 527.245 423.055 534.247 410.138C534.581 409.522 533.039 409.572 532.758 409.604C532.041 409.688 531.056 409.968 530.716 410.599Z" fill="#5A819E"/>
<path fill-rule="evenodd" clip-rule="evenodd" d="M522.09 365.944C531.862 360.128 543.849 356.852 555.468 358.358C567.089 359.864 578.08 366.623 582.333 376.401C582.933 377.781 583.385 379.384 582.616 380.697C582.12 381.542 581.196 382.112 580.283 382.61C572.801 386.691 563.588 388.166 554.984 386.663C543.263 384.615 533.569 377.522 524.419 370.666C522.389 369.145 520.233 367.446 519.691 365.128L523.391 364.892" fill="#F2B592"/>
<path fill-rule="evenodd" clip-rule="evenodd" d="M470.59 373.372C469.813 373.068 468.964 372.949 468.126 372.833C455.724 371.105 443.321 369.378 430.919 367.651L426.775 370.089C418.44 368.926 409.601 371.032 403.02 375.746C396.44 380.461 392.217 387.712 391.675 395.232C391.474 398.02 392.154 401.371 395.017 402.493C398.444 403.835 402.061 400.979 404.085 398.167C406.355 395.01 408.092 391.547 410.628 388.556C413.163 385.563 416.748 382.994 420.932 382.665C417.738 387.783 414.545 392.899 411.351 398.017C409.701 400.661 408.024 403.372 407.464 406.359C406.904 409.344 407.668 412.71 410.24 414.683C414.499 417.947 421.435 415.828 425.063 412.004C428.694 408.182 430.246 403.16 432.992 398.789C435.4 394.951 438.766 391.595 442.772 389.035C441.02 393.228 439.271 397.422 437.519 401.615C435.887 405.521 434.535 410.568 438.038 413.325C441.059 415.705 446.054 414.594 448.915 412.06C451.777 409.526 453.157 405.996 454.881 402.743C457.636 397.547 461.475 392.811 466.139 388.85C468.728 386.651 471.655 384.587 473.115 381.673C474.573 378.761 473.862 374.652 470.59 373.372Z" fill="#F2B592"/>
<path fill-rule="evenodd" clip-rule="evenodd" d="M426.432 379.668C427.066 379.042 427.722 378.435 428.405 377.851C428.747 377.559 429.095 377.273 429.447 376.993C429.643 376.837 429.841 376.682 430.04 376.531C430.121 376.469 430.201 376.408 430.282 376.349C430.308 376.329 430.608 376.106 430.488 376.195C430.388 376.268 430.614 376.104 430.636 376.089C430.738 376.015 430.84 375.943 430.945 375.87C431.13 375.741 431.316 375.611 431.506 375.484C431.882 375.229 432.264 374.982 432.651 374.74C433.449 374.242 434.266 373.775 435.1 373.332C435.648 373.04 436.089 372.264 435.358 371.914C434.565 371.533 433.553 371.78 432.83 372.164C429.375 373.996 426.224 376.3 423.53 378.961C423.03 379.455 423.141 380.097 423.921 380.269C424.726 380.446 425.854 380.238 426.432 379.668Z" fill="black" fill-opacity="0.12"/>
<path fill-rule="evenodd" clip-rule="evenodd" d="M444.656 388.074C447.894 384.656 451.356 381.415 455.027 378.365C455.64 377.858 454.5 377.66 454.138 377.677C453.292 377.717 452.403 377.957 451.775 378.479C448.104 381.529 444.641 384.77 441.406 388.188C440.886 388.735 441.855 388.896 442.294 388.875C443.055 388.84 444.13 388.629 444.656 388.074Z" fill="black" fill-opacity="0.12"/>
<path fill-rule="evenodd" clip-rule="evenodd" d="M508.461 170.758C507.309 171.847 506.966 173.522 507.634 174.9C508.251 176.174 509.545 176.892 511.004 177.057C514.04 177.611 517.519 175.231 517.353 172.392C517.128 168.5 510.819 168.524 508.461 170.758Z" fill="black"/>
<path fill-rule="evenodd" clip-rule="evenodd" d="M557.347 171.973C557.102 170.783 556.036 169.929 554.793 169.584C554.536 169.18 553.762 169.059 553.298 169.133C551.588 169.404 549.949 170.2 549.384 171.765C549.256 172.118 549.225 172.468 549.262 172.807C549.115 173.719 549.458 174.622 550.38 175.189C551.674 175.982 553.562 175.873 554.943 175.337C556.456 174.747 557.668 173.53 557.347 171.973Z" fill="black"/>
<path fill-rule="evenodd" clip-rule="evenodd" d="M501.03 156.069C503.877 152.522 508.22 150.79 513.066 151.736C513.91 151.9 516.995 150.685 515.977 150.486C509.139 149.152 501.629 151.504 497.526 156.616C497.266 156.94 500.409 156.843 501.03 156.069Z" fill="black"/>
<path fill-rule="evenodd" clip-rule="evenodd" d="M545.791 150.543C550.086 149.925 554.091 151.883 556.369 155.103C557.012 156.014 560.463 154.982 559.662 153.849C556.809 149.812 551.455 147.993 546.261 148.74C545.678 148.823 544.29 149.136 544.248 149.834C544.206 150.53 545.205 150.626 545.791 150.543Z" fill="black"/>
<path fill-rule="evenodd" clip-rule="evenodd" d="M492.786 214.163C516.552 231.316 550.959 228.542 571.261 208.297C572.742 206.819 569.341 206.38 568.306 207.413C549.233 226.43 517.672 228.347 495.533 212.37C494.352 211.518 491.223 213.035 492.786 214.163Z" fill="black"/>
<path fill-rule="evenodd" clip-rule="evenodd" d="M380.661 867.14C379.743 877.647 379.212 888.181 379.073 898.719C379.03 901.953 379.032 905.235 380.008 908.349C381.325 912.547 384.316 916.142 387.292 919.598C397.889 931.902 409.815 944.295 426.064 949.802C431.028 951.484 436.34 952.496 440.502 955.686C442.72 957.386 444.351 959.686 444.632 962.285C445.402 969.382 436.421 973.527 428.801 974.999C406.407 979.328 381.3 975.914 364.023 962.469C359.692 959.098 355.936 955.189 352.195 951.294C347.726 946.64 343.068 941.627 342.123 935.552C341.501 931.567 342.562 927.547 343.032 923.545C345.036 906.479 336.344 890.052 332.38 873.261C332.153 872.299 331.944 871.281 332.29 870.347C332.731 869.158 333.968 868.37 335.159 867.709C347.405 860.92 362.9 859.032 376.753 862.543C378.785 863.058 380.371 864.564 380.641 866.434C380.708 866.898 380.661 867.14 380.661 867.14Z" fill="#D8936C"/>
<path fill-rule="evenodd" clip-rule="evenodd" d="M380.661 867.14C379.743 877.647 379.212 888.181 379.073 898.719C379.03 901.953 379.032 905.235 380.008 908.349C381.325 912.547 384.316 916.142 387.292 919.598C397.889 931.902 409.815 944.295 426.064 949.802C431.028 951.484 436.34 952.496 440.502 955.686C442.72 957.386 444.351 959.686 444.632 962.285C445.402 969.382 436.421 973.527 428.801 974.999C406.407 979.328 381.3 975.914 364.023 962.469C359.692 959.098 355.936 955.189 352.195 951.294C347.726 946.64 343.068 941.627 342.123 935.552C341.501 931.567 342.562 927.547 343.032 923.545C345.036 906.479 336.344 890.052 332.38 873.261C332.153 872.299 331.944 871.281 332.29 870.347C332.731 869.158 333.968 868.37 335.159 867.709C347.405 860.92 362.9 859.032 376.753 862.543C378.785 863.058 380.371 864.564 380.641 866.434C380.708 866.898 380.661 867.14 380.661 867.14Z" fill="black" fill-opacity="0.12"/>
<path fill-rule="evenodd" clip-rule="evenodd" d="M408.647 940.479C411.927 941.635 411.92 947.824 409.56 950.167C407.2 952.508 403.402 953.148 399.879 953.317C375.952 954.465 353.796 939.717 341.875 921.147C334.685 936.097 341.281 955.285 356.623 964.054C358.386 965.063 360.857 965.896 362.41 964.641C381.09 979.773 409.775 983.115 433.334 975.083C437.51 973.66 441.688 971.819 444.51 968.72C447.33 965.623 448.445 960.992 446.128 957.577C444.322 954.913 440.923 953.52 437.726 952.279C428.473 948.688 420.042 945.417 410.791 941.826" fill="#0C844D"/>
<path fill-rule="evenodd" clip-rule="evenodd" d="M218.264 884.795C228.323 905.254 238.587 927.792 231.833 949.31C227.817 962.11 228.302 955.722 222.188 967.84C220.709 970.773 213.838 992.309 213.816 995.526C213.766 1002.49 215.303 1007.26 222.433 1010.07C229.563 1012.89 237.599 1013.1 245.395 1013.14C252.809 1013.17 257.079 1011.58 263.257 1007.92C268.637 1004.73 272.734 1001.68 274.205 996.068C275.677 990.454 276.309 985.082 276.499 979.318C278.099 930.933 272.364 913.372 265.36 881.665C264.877 879.48 264.28 877.133 262.407 875.662C260.743 874.354 258.406 874.013 256.195 873.861C242.347 872.904 228.136 877.465 218.135 886.077" fill="#D8936C"/>
<path fill-rule="evenodd" clip-rule="evenodd" d="M222.189 967.84C221.31 974.654 228.444 980.341 235.759 982.422C248.687 986.097 264.825 981.207 270.233 970.091C271.988 966.484 272.669 962.535 273.138 958.624C274.004 951.407 274.989 943.126 275.701 937.425C278.233 949.678 278.183 962.254 277.609 974.704C277.031 987.246 275.55 1001.45 264.486 1009.19C257.237 1014.26 247.502 1015.25 238.31 1015.71C231.086 1016.08 223.158 1016.05 217.529 1011.99C210.735 1007.09 209.826 997.963 212.031 990.416C214.235 982.868 217.154 975.396 221.432 968.597C221.573 968.376 222.189 967.84 222.189 967.84Z" fill="#01AF7C"/>
<path fill-rule="evenodd" clip-rule="evenodd" d="M344.005 576.293C357.471 575.832 370.936 575.373 384.401 574.914C381.841 594.353 382.151 644.023 382.468 663.593C383.484 726.766 384.502 789.938 385.519 853.11C365.043 854.616 344.568 856.122 324.091 857.627C324.291 847.709 318.58 838.554 315.911 828.925C309.867 807.111 319.66 784.362 318.955 761.899C317.967 730.449 296.468 700.203 303.002 669.287C305.909 655.524 314.279 642.8 315.17 628.817C315.476 623.985 315.02 588.651 318.265 584.774C321.333 581.109 326.772 579.886 331.776 578.906C337.489 577.785 343.203 576.666 348.916 575.545C350.01 575.331 351.229 575.132 352.189 575.648C353.149 576.161 353.339 577.714 352.281 578.039" fill="#45546B"/>
<path fill-rule="evenodd" clip-rule="evenodd" d="M316.491 851.663C315.734 851.826 315.251 852.491 315.397 853.173C316.729 859.344 319.379 865.287 323.17 870.582C324.165 871.974 325.338 873.393 327.064 873.985C328.556 874.497 330.218 874.306 331.801 874.107C349.184 871.928 366.57 869.747 383.953 867.568C384.861 867.454 385.817 867.322 386.531 866.811C387.163 866.362 387.518 865.677 387.841 865.015C390.299 859.986 392.194 854.736 393.485 849.369C393.654 848.666 393.762 847.946 393.72 847.228C393.452 842.817 388.907 842.198 385.153 842.118C363.597 841.657 324.221 849.978 316.491 851.663Z" fill="#768C8C"/>
<path fill-rule="evenodd" clip-rule="evenodd" d="M353.918 793.045C361.815 786.98 369.714 780.916 377.61 774.852C379.367 773.503 376.63 772.536 375.358 773.513C367.461 779.576 359.563 785.64 351.666 791.704C349.909 793.054 352.647 794.021 353.918 793.045Z" fill="#5A819E"/>
<path fill-rule="evenodd" clip-rule="evenodd" d="M354.879 781.333C361.457 776.432 368.034 771.53 374.61 766.629C376.135 765.491 372.756 765.369 371.843 766.048L352.113 780.751C350.587 781.888 353.969 782.012 354.879 781.333Z" fill="#5A819E"/>
<path fill-rule="evenodd" clip-rule="evenodd" d="M359.938 765.03C365.799 762.186 371.262 758.846 376.349 754.992C377.128 754.402 373.906 754.655 373.236 755.165C368.495 758.756 363.398 761.878 357.937 764.528C355.945 765.496 359.07 765.452 359.938 765.03Z" fill="#5A819E"/>
<path fill-rule="evenodd" clip-rule="evenodd" d="M218.848 623.831C218.187 619.348 212.443 577.277 225.336 575.895C254.254 572.793 308.364 579.511 347.629 575.895C338.471 590.648 334.038 637.743 334.985 654.593C335.125 657.115 335.356 659.773 334.097 662.034C330.81 667.941 320.685 666.845 314.952 671.005C310.215 674.441 309.559 680.584 309.43 686.035C309.09 700.309 309.817 714.628 308.237 728.832C302.917 776.627 271.828 820.622 271.721 868.65C251.526 868.614 231.333 872.282 212.757 879.36C202.566 859.718 199.644 837.131 204.551 815.929C207.479 803.267 213.077 791.224 216.695 778.702C226.369 745.219 221.551 709.989 220.192 675.43C219.978 670.011 219.861 664.508 221.365 659.256C222.046 656.874 223.058 654.556 223.4 652.116C223.746 649.643 223.391 647.137 223.034 644.664C221.956 637.176 218.848 623.831 218.848 623.831Z" fill="#5A819E"/>
<path fill-rule="evenodd" clip-rule="evenodd" d="M200.068 875.193C203.28 882.07 207.091 888.725 211.456 895.076C211.891 895.709 212.367 896.369 213.112 896.698C214.339 897.239 215.79 896.701 217.03 896.187C233.964 889.173 252.932 886.125 271.541 887.43C275.147 878.588 277.036 869.188 277.099 859.776C277.104 859.032 277.039 858.178 276.379 857.725C275.833 857.349 275.073 857.391 274.387 857.451C251.451 859.424 228.055 861.502 206.988 869.841C205.095 870.591 203.154 871.438 201.874 872.893C200.596 874.349 200.193 876.586 201.504 878.02" fill="#A0B4B5"/>
<path fill-rule="evenodd" clip-rule="evenodd" d="M232.081 651.622C237.155 653.725 242.892 650.212 246.877 647.601C253.395 643.329 258.372 637.623 261.67 631.053C261.918 630.56 258.694 630.794 258.295 631.587C256.285 635.591 253.727 639.275 250.397 642.522C247.68 645.173 239.876 652.473 235.303 650.577C234.394 650.199 231.688 651.459 232.081 651.622Z" fill="#79B5BC"/>
<path fill-rule="evenodd" clip-rule="evenodd" d="M247.872 806.606L277.888 779.989C279.277 778.755 275.932 778.855 275.16 779.539L245.144 806.155C243.754 807.389 247.1 807.289 247.872 806.606Z" fill="#79B5BC"/>
<path fill-rule="evenodd" clip-rule="evenodd" d="M254.066 793.265C262.328 786.359 270.59 779.451 278.852 772.546C280.369 771.276 277.037 770.947 276.031 771.787C267.77 778.694 259.508 785.599 251.246 792.506C249.728 793.774 253.062 794.105 254.066 793.265Z" fill="#79B5BC"/>
<path fill-rule="evenodd" clip-rule="evenodd" d="M258.903 777.766C266.049 773.298 272.831 768.426 279.271 763.17C280.117 762.482 276.826 762.718 276.139 763.28C269.85 768.41 263.207 773.146 256.232 777.508C254.765 778.425 258.179 778.219 258.903 777.766Z" fill="#79B5BC"/>
<path fill-rule="evenodd" clip-rule="evenodd" d="M319.754 331.892C319.023 331.548 318.269 331.144 317.89 330.488C317.57 329.934 317.568 329.284 317.571 328.661C317.615 321.962 317.656 315.262 317.699 308.562C305.465 304.922 292.781 302.48 279.954 301.297C277.724 301.091 272.787 297.885 272.787 297.885C273.07 307.495 272.883 317.116 272.229 326.712C265.341 327.719 258.36 328.221 251.38 328.208C256.048 332.643 260.716 337.077 265.385 341.511C276.08 351.668 288.349 362.517 303.929 363.367C312.46 363.832 321.155 360.975 327.316 355.681C333.476 350.387 337.011 342.737 336.822 335.102C330.947 335.47 324.964 334.345 319.754 331.892Z" fill="#D8936C"/>
<path fill-rule="evenodd" clip-rule="evenodd" d="M272.543 303.339C272.124 304.212 272.387 305.215 272.675 306.129C274.692 312.513 277.761 318.778 282.829 323.624C287.897 328.47 295.194 331.745 302.598 331.252C304.514 331.124 306.431 330.742 308.125 329.932C309.534 329.258 310.757 328.301 311.812 327.228C317.722 321.217 317.967 312.427 317.902 304.426C317.899 304.099 317.881 303.738 317.627 303.503C317.426 303.317 317.123 303.256 316.839 303.206C303.168 300.751 289.207 299.59 275.266 299.747C274.152 299.759 272.976 299.796 272.033 300.325C271.09 300.853 270.525 302.055 271.152 302.878" fill="black" fill-opacity="0.12"/>
<path fill-rule="evenodd" clip-rule="evenodd" d="M231.482 231.713C224.905 224.883 211.854 224.995 204.323 230.988C196.793 236.979 194.782 247.333 198.012 255.867C203.595 270.618 231.664 279.342 238.265 260.721C237.257 263.568 244.558 274.617 246.232 277.627C249.727 283.914 254.041 289.797 259.941 294.501C272.171 304.251 288.924 309.301 304.927 311.229C325.649 313.728 347.666 310.953 365.242 300.834C384.055 290.006 396.356 271.505 401.196 251.986C406.035 232.466 403.945 211.986 398.469 192.602C395.898 183.502 392.478 174.373 386.069 166.937C380.49 160.467 372.895 155.585 364.865 151.68C336.11 137.694 299.471 136.011 270.655 149.896C238.934 165.18 220.228 199.626 228.51 231.277C229.663 230.694 230.696 229.918 231.54 229.005" fill="#D8936C"/>
<path fill-rule="evenodd" clip-rule="evenodd" d="M206.586 242.02C213.655 236.875 220.781 241.846 226.187 246.205C226.357 245.835 226.527 245.465 226.697 245.096C224.214 246.394 221.991 247.908 220.115 249.872C218.801 251.25 215.796 254.28 216.331 256.26C217.385 260.166 225.923 261.444 229.592 261.858C230.98 262.014 233.189 260.294 230.896 260.035C227.023 259.599 218.73 258.103 221.049 252.82C222.313 249.938 226.014 247.572 228.846 246.092C229.18 245.917 229.802 245.341 229.356 244.982C221.718 238.823 212.828 234.889 203.821 241.445C202.287 242.561 205.674 242.684 206.586 242.02Z" fill="#D8936C"/>
<path fill-rule="evenodd" clip-rule="evenodd" d="M206.586 242.02C213.655 236.875 220.781 241.846 226.187 246.205C226.357 245.835 226.527 245.465 226.697 245.096C224.214 246.394 221.991 247.908 220.115 249.872C218.801 251.25 215.796 254.28 216.331 256.26C217.385 260.166 225.923 261.444 229.592 261.858C230.98 262.014 233.189 260.294 230.896 260.035C227.023 259.599 218.73 258.103 221.049 252.82C222.313 249.938 226.014 247.572 228.846 246.092C229.18 245.917 229.802 245.341 229.356 244.982C221.718 238.823 212.828 234.889 203.821 241.445C202.287 242.561 205.674 242.684 206.586 242.02Z" fill="black" fill-opacity="0.12"/>
<path fill-rule="evenodd" clip-rule="evenodd" d="M214.203 225.12C218.653 224.285 223.135 226.843 226.458 229.195C226.926 229.526 228.164 229.119 228.644 228.969C228.849 228.906 230.114 228.49 229.693 228.193C227.621 226.727 225.376 225.399 222.872 224.603C220.28 223.78 217.573 223.628 214.882 224.133C214.438 224.216 213.99 224.324 213.576 224.488C213.45 224.539 212.91 224.742 212.861 224.915C212.728 225.38 214.008 225.157 214.203 225.12Z" fill="#1B1B1B"/>
<path fill-rule="evenodd" clip-rule="evenodd" d="M254.3 128.688C254.325 128.675 254.35 128.666 254.374 128.652L254.835 128.25C254.774 128.312 254.604 128.464 254.368 128.669C254.345 128.676 254.323 128.682 254.3 128.688ZM396.158 171.783C393.521 164.736 389.564 158.079 384.437 152.224C374.11 140.427 359.111 131.963 342.75 128.699C338.775 127.906 334.737 127.415 330.682 127.042C330.465 121.815 325.871 116.936 320.259 115.009C317.563 114.083 314.718 113.714 311.841 113.736C311.991 113.528 312.135 113.321 312.269 113.114C318.218 103.951 324.362 94.1082 323.745 83.5296C323.127 72.9511 312.539 62.1658 300.953 64.4184C305.245 55.0315 304.566 43.9383 299.154 35.025C293.74 26.1116 283.701 19.5552 272.552 17.6527C259.231 15.3791 245.294 19.628 234.343 26.7739C223.389 33.9198 215.012 43.7369 207.398 53.7629C204.231 57.9348 201.096 62.323 200.142 67.2911C198.508 75.7953 203.749 84.4176 211.117 89.9953C218.485 95.5741 227.735 98.6925 236.783 101.709C232.819 107.938 230.986 115.792 234.388 122.281C236.756 126.799 242.26 130.009 247.65 130.224C240.524 131.483 233.094 131.45 228.149 127.977C221.431 123.258 223.3 114.017 227.558 108.534C227.698 108.354 227.397 108.205 227.265 108.173C220.601 106.605 204.593 103.096 206.09 94.626C206.23 93.8224 202.846 94.3518 202.708 95.1386C201.463 102.182 211.1 105.362 217.089 107.362C219.057 108.02 222.814 108.149 223.189 110.318C223.366 111.344 220.968 114.744 220.683 116.055C219.994 119.228 220.207 122.74 221.849 125.658C226.737 134.342 241.089 133.088 252.572 130.214C244.93 136.734 220.661 157.088 220.016 157.895C221.23 156.717 215.078 170.177 213.125 177.75C211.341 184.671 209.572 191.92 211.571 198.796C211.745 199.4 211.956 199.99 212.181 200.577C211.575 204.666 212.009 208.828 213.945 212.547C216.006 216.503 220.045 219.705 224.623 221.021C225.407 222.222 226.191 223.424 226.973 224.626C228.124 232.711 231.59 240.578 237.94 247.687C238.726 235.396 244.894 223.981 249.057 212.244C252.258 203.221 254.283 193.868 255.115 184.432C272.939 189.049 292.581 188.122 309.617 181.5C324.418 175.747 337.449 165.466 343.646 152.218C348.368 163.67 354.491 174.964 364.302 183.442C369.743 188.142 391.994 200.801 398.79 193.979L399.008 194.171C398.986 194.055 398.953 193.94 398.93 193.824C399.334 193.386 399.687 192.883 399.965 192.29C402.26 187.396 397.931 176.52 396.158 171.783Z" fill="#1C1C2B"/>
<path fill-rule="evenodd" clip-rule="evenodd" d="M219.353 158.724C219.569 158.445 219.794 158.172 220.016 157.895C219.742 158.16 219.472 158.428 219.207 158.701C219.255 158.708 219.305 158.717 219.353 158.724Z" fill="#1C1C2B"/>
<path fill-rule="evenodd" clip-rule="evenodd" d="M363.789 101.534C359.313 101.367 354.754 101.294 350.442 102.384C346.498 103.379 342.929 105.31 339.579 107.421C330.026 113.444 321.504 121.614 318.668 131.747L320.781 129.095C319.411 130.749 318.541 132.732 318.288 134.778C333.181 139.03 349.785 138.305 364.144 132.777C378.503 127.25 390.495 116.965 397.265 104.375C386.174 102.899 374.994 101.951 363.789 101.534Z" fill="#DD5252"/>
<path fill-rule="evenodd" clip-rule="evenodd" d="M318.288 134.778C323.546 130.098 329.561 124.615 334.819 119.935C339.773 115.525 344.88 110.906 347.209 105.013C348.458 101.854 348.84 98.4763 348.987 95.129C349.747 77.7093 344.189 60.1135 333.348 45.6182C325.568 59.3215 317.72 73.1915 313.812 88.155C309.903 103.119 309.082 119.742 317.194 133.292" fill="#F67E7D"/>
<path fill-rule="evenodd" clip-rule="evenodd" d="M211.779 225.717C203.323 215.69 199.862 203.438 201.315 190.95C202.765 178.463 209.678 166.547 220.26 158.287C228.911 151.533 239.659 147.307 250.513 143.945C272.771 137.051 294.732 135.053 318.288 134.778C312.616 136.529 308.585 136.854 303.058 138.945C288.7 144.381 274.508 150.486 262.158 158.992C249.808 167.498 239.311 178.604 234.189 191.762C229.772 203.112 225.967 225.316 229.255 233.543C229.891 235.136 227.185 227.843 214.84 226.393" fill="#F67E7D"/>
<path fill-rule="evenodd" clip-rule="evenodd" d="M229.521 45.4742C223.136 52.5557 221.961 62.4847 226.791 70.5797C232.643 80.3831 245.164 82.5102 256.421 84.031C256.055 83.7473 255.69 83.4636 255.324 83.1799C252.397 90.5747 249.777 98.8637 255.693 105.669C260.438 111.13 268.277 113.655 275.342 115.833C276.629 116.23 279.357 114.565 277.371 113.954C270.752 111.914 263.287 109.538 258.845 104.391C253.232 97.8872 256.004 89.867 258.768 82.8793C258.99 82.3204 258.069 82.0831 257.672 82.0293C247.189 80.6141 235.546 78.6357 230.12 69.5103C225.712 62.0987 226.402 52.7688 232.33 46.1955C233.649 44.7307 230.383 44.5177 229.521 45.4742Z" fill="#7D7AA2"/>
<path fill-rule="evenodd" clip-rule="evenodd" d="M276.121 171.094C287.909 175.277 304.859 176.663 312.339 165.166C314.407 161.989 313.236 158.955 317.86 158.509C320.875 158.218 323.623 158.482 326.566 157.517C332.495 155.574 335.274 150.723 337.652 145.834C338.064 144.988 334.702 145.309 334.241 146.254C333.211 148.374 332.199 150.64 330.628 152.492C326.816 156.983 321.634 156.688 316.388 156.789C314.272 156.83 312.381 156.801 311.246 158.572C310.547 159.665 310.827 161.468 310.386 162.701C309.444 165.34 307.427 167.719 304.995 169.418C297.332 174.767 287.07 172.596 278.863 169.686C277.91 169.346 274.792 170.623 276.121 171.094Z" fill="#7D7AA2"/>
<path fill-rule="evenodd" clip-rule="evenodd" d="M247.193 156.806C262.165 149.095 278.587 143.723 295.606 141.026C296.194 140.933 297.451 140.666 297.551 139.995C297.649 139.335 296.568 139.273 296.078 139.35C278.14 142.192 260.862 147.783 245.075 155.914C244.529 156.194 244.146 156.718 244.772 157.095C245.404 157.476 246.621 157.1 247.193 156.806Z" fill="#DD5252"/>
<path fill-rule="evenodd" clip-rule="evenodd" d="M433.574 460.492C434.616 460.492 437.28 459.105 435.009 459.105C433.967 459.105 431.303 460.492 433.574 460.492Z" fill="#D8936C"/>
<path fill-rule="evenodd" clip-rule="evenodd" d="M500.799 502.372C498.808 495.53 492.182 489.741 484.331 488.861C482.322 488.636 479.943 488.556 478.83 487.046C478.103 486.061 478.196 484.784 478.315 483.61C478.98 477.103 479.641 470.596 480.305 464.089C480.446 462.705 480.57 461.238 479.878 459.993C478.895 458.221 476.579 457.429 474.44 456.926C465.553 454.841 455.995 455.095 447.264 457.649L440.24 466.14C438.738 473.369 438.5 480.806 439.539 488.1C439.699 489.239 439.878 490.462 439.281 491.479C438.54 492.746 436.866 493.275 435.389 493.828C429.356 496.087 424.222 500.893 423.396 506.69C422.57 512.488 427.065 518.859 433.553 519.609C435.393 519.822 437.449 519.659 438.897 520.697C440.26 521.674 440.585 523.37 441.028 524.881C442.379 529.478 445.725 533.584 450.209 536.141C452.814 537.629 456.037 538.612 458.996 537.816C465.216 536.142 467.313 527.697 473.78 527.146C476.311 526.93 478.716 528.081 481.225 528.439C486.699 529.221 492.028 526.125 495.504 522.267C500.464 516.759 502.79 509.214 500.799 502.372Z" fill="#D8936C"/>
<path fill-rule="evenodd" clip-rule="evenodd" d="M488.161 420.701C487.141 409.601 485.341 398.557 482.777 387.658C481.251 381.17 479.34 374.516 474.769 369.294C468.686 362.346 458.908 359.014 449.629 355.997C422.929 347.315 368.8 337.906 368.8 337.906C365.961 337.98 363.583 340.077 362.61 342.46C361.636 344.842 361.791 347.462 362.057 349.987C364.015 368.67 371.433 386.876 383.375 402.312C384.819 404.177 386.378 406.047 388.529 407.252C391.319 408.814 394.751 409.073 398.035 409.288C404.132 409.689 410.228 410.088 416.326 410.489C417.589 410.572 418.967 410.699 419.871 411.491C420.738 412.247 420.938 413.407 421.091 414.481L425.019 442.027C425.148 442.937 425.326 443.93 426.091 444.543C426.745 445.066 427.675 445.184 428.547 445.275C446.239 447.112 464.153 447.238 481.875 445.65C483.098 445.541 484.386 445.4 485.366 444.739C486.526 443.955 487.002 442.616 487.336 441.352C489.118 434.619 488.795 427.596 488.161 420.701Z" fill="#845A47"/>
<path fill-rule="evenodd" clip-rule="evenodd" d="M502.239 439.433C502.059 438.026 501.734 436.47 500.466 435.618C499.49 434.96 498.184 434.887 496.963 434.843C473.118 433.98 449.209 434.496 425.438 436.385C422.447 436.622 419.529 437.448 417.011 438.91C415.74 439.65 414.705 440.471 414.644 441.208C413.96 449.595 413.289 458.15 415.555 466.313C416.016 467.97 416.7 469.73 418.292 470.672C419.743 471.531 421.608 471.51 423.348 471.472C445.986 470.979 468.685 472.812 490.857 476.921C492.352 477.198 494.043 477.452 495.291 476.669C496.134 476.14 496.577 475.248 496.962 474.395C501.93 463.375 503.763 451.237 502.239 439.433Z" fill="#CCB4A8"/>
<path fill-rule="evenodd" clip-rule="evenodd" d="M432.076 513.231C434.806 516.992 437.184 520.91 439.197 525.017C439.853 526.35 443.243 525.47 442.62 524.198C440.519 519.918 438.056 515.814 435.21 511.893C434.385 510.756 431.117 511.91 432.076 513.231Z" fill="#D8936C"/>
<path fill-rule="evenodd" clip-rule="evenodd" d="M477.471 522.494C473.44 524.778 469.741 527.45 466.38 530.477C464.904 531.804 468.221 532.115 469.199 531.234C472.379 528.371 475.875 525.873 479.687 523.713C480.32 523.354 480.511 522.716 479.913 522.273C479.274 521.8 478.063 522.159 477.471 522.494Z" fill="#D8936C"/>
<path fill-rule="evenodd" clip-rule="evenodd" d="M432.076 513.231C434.806 516.992 437.184 520.91 439.197 525.017C439.853 526.35 443.243 525.47 442.62 524.198C440.519 519.918 438.056 515.814 435.21 511.893C434.385 510.756 431.117 511.91 432.076 513.231Z" fill="black" fill-opacity="0.12"/>
<path fill-rule="evenodd" clip-rule="evenodd" d="M477.471 522.494C473.44 524.778 469.741 527.45 466.38 530.477C464.904 531.804 468.221 532.115 469.199 531.234C472.379 528.371 475.875 525.873 479.687 523.713C480.32 523.354 480.511 522.716 479.913 522.273C479.274 521.8 478.063 522.159 477.471 522.494Z" fill="black" fill-opacity="0.12"/>
<path fill-rule="evenodd" clip-rule="evenodd" d="M423.643 390.93C422.074 396.409 419.594 401.437 417.54 406.751C416.408 409.681 416.719 412.893 420.815 413.269C423.635 413.528 426.165 412.089 428.11 410.451C433.012 406.326 437.734 403.087 443.614 400.09C445.604 399.075 442.55 398.843 441.543 399.357C438.209 401.057 434.846 402.76 431.767 404.819C430.497 405.669 429.275 406.568 428.123 407.544C427.03 408.469 425.514 410.517 424.203 411.082C417.225 414.08 421.976 404.174 422.779 402.377C424.506 398.503 425.891 394.532 427.048 390.493C427.321 389.533 423.914 389.986 423.643 390.93Z" fill="#56322B"/>
<path fill-rule="evenodd" clip-rule="evenodd" d="M170.66 508.244C168.963 504.879 166.77 501.242 162.851 500.074C157.585 498.505 150.567 501.827 146.837 498.154C147.476 490.645 148.114 483.135 148.753 475.626L140.339 469.314C132.351 466.284 122.906 466.482 115.086 469.844C113.613 470.478 112.124 471.281 111.339 472.564C110.516 473.91 110.612 475.536 110.702 477.068C111.005 482.233 110.986 487.413 110.647 492.576C110.535 494.28 110.226 496.238 108.605 497.143C107.51 497.755 106.129 497.69 104.84 497.762C94.5225 498.335 88.1646 508.361 86.6265 517.494C85.3799 524.895 86.1142 532.844 90.5373 539.2C94.9604 545.557 103.625 549.862 111.814 548.287C114.738 547.725 117.529 546.465 120.518 546.471C124.691 546.478 128.3 548.907 132.201 550.23C138.453 552.35 145.869 551.48 151.296 547.989C156.721 544.497 159.996 538.489 159.724 532.519C159.672 531.366 159.538 530.088 160.339 529.183C161.546 527.82 163.897 528.224 165.835 528.07C170.276 527.716 173.452 523.681 173.835 519.713C174.219 515.744 172.489 511.876 170.66 508.244Z" fill="#D8936C"/>
<path fill-rule="evenodd" clip-rule="evenodd" d="M213.549 406.471L220.977 390.656C221.338 390.038 221.638 389.387 221.888 388.714L238.425 353.503L226.338 357.142C226.4 352.648 226.252 348.154 225.842 343.675L208.864 343.882C179.665 350.32 150.77 357.861 122.284 366.478C117.22 368.01 111.953 369.699 108.318 373.202C105.089 376.317 103.54 380.504 102.219 384.584C94.918 407.14 91.883 430.793 93.2818 454.241C93.3857 455.978 93.5699 457.847 94.8353 459.171C96.5458 460.961 99.5417 461.092 102.176 461.057C123.134 460.772 144.06 458.698 164.579 454.873C165.739 454.656 166.962 454.405 167.816 453.671C169.214 452.472 169.121 450.488 168.966 448.763C168.022 438.25 168.566 427.633 170.55 417.236L213.549 406.471Z" fill="#845A47"/>
<path fill-rule="evenodd" clip-rule="evenodd" d="M174.9 441.236C174.751 439.614 174.479 437.805 173.051 436.795C171.958 436.022 170.466 435.927 169.073 435.869C140.587 434.683 111.996 435.456 83.6405 438.179C81.2678 438.407 78.7912 438.681 76.8128 439.876C74.9323 441.014 73.733 442.859 72.9149 444.752C70.9802 449.227 70.8952 454.32 72.6789 458.845L73.4863 458.788C73.3328 466.57 73.9809 475.766 81.335 479.941C85.7983 482.474 91.4715 482.302 96.7481 481.993C120.846 480.581 145.108 478.081 169.051 480.895C171.166 481.143 173.775 481.245 174.925 479.641C175.439 478.922 175.507 478.029 175.553 477.178C176.215 465.202 175.998 453.187 174.9 441.236Z" fill="#CCB4A8"/>
<path fill-rule="evenodd" clip-rule="evenodd" d="M162.03 523.788C163.62 521.172 164.754 518.46 165.553 515.574C166.005 513.945 162.732 514.531 162.168 515.458C159.815 519.333 158.524 523.513 158.314 527.918C158.232 529.584 161.719 529.205 161.79 527.724C161.993 523.509 163.21 519.591 165.461 515.883C164.333 515.844 163.204 515.806 162.077 515.767C161.337 518.437 160.202 520.95 158.736 523.364C157.79 524.92 161.259 525.057 162.03 523.788Z" fill="#D8936C"/>
<path fill-rule="evenodd" clip-rule="evenodd" d="M112.759 543.879C116.497 544.757 120.235 545.634 123.973 546.513C125.024 546.76 127.982 545.345 126.082 544.898C122.343 544.02 118.605 543.142 114.867 542.264C113.817 542.017 110.859 543.431 112.759 543.879Z" fill="#D8936C"/>
<path fill-rule="evenodd" clip-rule="evenodd" d="M143.47 399.223C149.449 402.88 154.666 407.151 159.284 412.137C161.223 414.231 163.604 416.249 166.787 414.659C170.699 412.703 168.17 407.663 166.541 405.088C163.06 399.586 158.509 394.478 154.51 389.271C153.949 388.541 150.629 389.514 151.316 390.407C153.92 393.797 156.524 397.187 159.128 400.577C160.531 402.405 166.67 408.724 165.362 411.526C164.099 414.229 162.857 411.372 161.892 410.351C160.282 408.646 158.616 406.995 156.827 405.436C153.694 402.702 150.276 400.295 146.666 398.087C145.757 397.531 142.702 398.753 143.47 399.223Z" fill="#56322B"/>
<path fill-rule="evenodd" clip-rule="evenodd" d="M187.824 412.033C194.463 410.291 201.533 408.189 205.078 402.436C209.56 395.161 206.867 386.309 207.648 378.455C207.792 376.998 204.323 377.485 204.197 378.742C203.621 384.542 204.83 390.403 203.913 396.173C202.561 404.673 195.7 407.925 187.258 410.14C185.193 410.681 185.734 412.582 187.824 412.033Z" fill="#56322B"/>
<path fill-rule="evenodd" clip-rule="evenodd" d="M162.03 523.788C163.62 521.172 164.754 518.46 165.553 515.574C166.005 513.945 162.732 514.531 162.168 515.458C159.815 519.333 158.524 523.513 158.314 527.918C158.232 529.584 161.719 529.205 161.79 527.724C161.993 523.509 163.21 519.591 165.461 515.883C164.333 515.844 163.204 515.806 162.077 515.767C161.337 518.437 160.202 520.95 158.736 523.364C157.79 524.92 161.259 525.057 162.03 523.788Z" fill="black" fill-opacity="0.12"/>
<path fill-rule="evenodd" clip-rule="evenodd" d="M112.759 543.879C116.497 544.757 120.235 545.634 123.973 546.513C125.024 546.76 127.982 545.345 126.082 544.898C122.343 544.02 118.605 543.142 114.867 542.264C113.817 542.017 110.859 543.431 112.759 543.879Z" fill="black" fill-opacity="0.12"/>
<path fill-rule="evenodd" clip-rule="evenodd" d="M402.399 547.513C398.53 529.385 396.727 510.906 397.03 492.454C397.208 481.623 398.107 470.775 397.21 459.972C396.184 447.608 392.822 435.506 389.474 423.474C380.28 390.451 369.345 354.935 339.401 333.902C335.718 331.316 331.539 327.836 329.502 324.223C329.612 323.066 329.708 321.907 329.773 320.748C329.854 319.303 329.758 317.59 328.407 316.79C327.565 316.294 326.484 316.318 325.477 316.352C313.576 316.742 301.624 315.827 289.964 313.662C287.441 313.06 284.938 312.389 282.473 311.619C280.051 310.863 277.346 310.057 274.849 310.099C274.265 309.931 273.678 309.768 273.096 309.593C271.71 309.178 269.981 308.808 268.953 309.736C268.352 310.278 268.216 311.1 268.183 311.862C268.15 312.576 268.183 313.287 268.257 313.996C267.962 314.473 267.681 314.958 267.414 315.442C260.164 328.637 252.912 341.831 245.661 355.026C236.423 371.834 227.056 389.016 224.286 407.576C222.063 422.464 224.196 437.566 226.329 452.466C230.108 478.866 233.886 505.266 237.665 531.667C238.953 540.664 234.85 557.616 230.501 572.124C227.003 583.786 236.79 595.2 250.305 595.292C280.189 595.495 310.503 603.708 340.567 607.377C351.85 608.753 363.445 609.474 374.536 607.163C385.626 604.854 396.26 599.136 401.738 590.217C409.575 577.46 405.451 561.808 402.399 547.513Z" fill="#EDF1F4"/>
<path fill-rule="evenodd" clip-rule="evenodd" d="M271.588 413.991C285.783 425.316 311.528 445.592 325.724 456.916C326.559 457.583 327.488 458.286 328.609 458.342C330.043 458.414 331.233 457.413 332.188 456.455C337.005 451.623 340.798 445.978 343.303 439.906C343.724 438.885 344.409 437.653 345.627 437.677C346.593 437.696 347.254 438.525 347.752 439.265C351.67 445.086 355.588 450.907 359.507 456.729C365.941 445.49 376.21 426.506 378.062 413.991L388.993 442.925C384.754 456.131 372.558 483.459 363.439 494.521C362.683 495.436 361.543 496.454 360.342 496.077C359.654 495.862 359.241 495.253 358.883 494.687C354.328 487.48 349.772 480.272 345.216 473.065C341.48 480.043 337.743 487.02 334.007 493.999C333.562 494.829 333.044 495.726 332.097 496.092C330.598 496.67 328.977 495.632 327.757 494.662C311.97 482.109 278.3 453.03 262.513 440.476L271.588 413.991Z" fill="#C5CFD6"/>
<path fill-rule="evenodd" clip-rule="evenodd" d="M293.802 350.23C303.334 355.121 315.206 353.674 323.158 346.977C324.671 345.701 321.341 345.369 320.336 346.214C313.77 351.746 304.23 352.548 296.469 348.566C295.291 347.962 292.226 349.421 293.802 350.23Z" fill="#C5CFD6"/>
<path fill-rule="evenodd" clip-rule="evenodd" d="M366.619 576.451C336.551 577.544 307.029 568.883 283.333 552.364C282.342 551.673 279.232 552.967 280.644 553.952C305.016 570.942 335.362 579.473 366.214 578.352C368.01 578.286 368.973 576.365 366.619 576.451Z" fill="#C5CFD6"/>
<path fill-rule="evenodd" clip-rule="evenodd" d="M262.207 457.971C262.557 437.985 262.906 418 263.254 398.015C263.634 376.245 264.04 354.285 269.487 333.064L252.357 329.745C230.19 332.958 208.764 340.205 189.77 350.912C185.341 353.41 180.923 356.202 178.13 360.159C174.625 365.126 174.115 371.279 173.974 377.148C173.538 395.16 175.649 413.22 180.238 430.762C183.317 442.531 187.541 454.378 186.436 466.423C185.443 477.228 180.199 488.158 183.618 498.56C185.04 502.891 187.909 506.809 188.853 511.242C190.045 516.841 188.052 522.534 186.41 528.041C179.228 552.146 178.62 577.788 184.609 602.15C185.26 604.802 188.066 606.56 191.085 606.248C215.858 603.683 240.331 598.808 263.978 591.729C270.33 589.828 273.938 583.862 272.248 578.071C260.915 539.246 261.504 498.235 262.207 457.971Z" fill="#845A47"/>
<path fill-rule="evenodd" clip-rule="evenodd" d="M202.936 534.682C201.216 537.869 199.713 541.151 198.433 544.501C198.301 544.847 198.17 545.213 198.257 545.57C198.544 546.731 200.455 546.549 201.685 546.092C215.545 540.957 230.112 537.356 244.955 535.395C246.332 535.213 247.803 535.008 248.825 534.165C249.618 533.51 250.017 532.565 250.328 531.641C251.723 527.494 251.847 523.01 250.678 518.806C250.474 518.069 250.199 517.296 249.545 516.809C248.81 516.262 247.774 516.206 246.818 516.205C231.798 516.184 217.817 523.08 205.948 531.3C204.852 532.06 203.658 533.039 203.761 534.274" fill="#CCB4A8"/>
<path fill-rule="evenodd" clip-rule="evenodd" d="M280.091 368.571C279.959 355.992 273.617 334.472 269.954 323.064C268.577 318.772 263.496 316.295 258.738 317.66C238.193 323.559 221.803 333.125 206.291 347.583C201.733 351.832 201.544 358.491 205.83 362.96C214.701 372.211 223.572 381.462 232.445 390.713C234.51 392.867 236.701 395.34 236.482 398.171C236.29 400.637 234.308 402.653 232.482 404.511C225.419 411.698 219.179 419.533 213.897 427.853C211.972 430.885 210.122 434.187 210.38 437.665C210.668 441.514 213.465 444.794 216.091 447.858C233.843 468.578 250.445 492.443 262.512 516.206C275.681 468.407 280.607 417.793 280.091 368.571Z" fill="#CCB4A8"/>
<path fill-rule="evenodd" clip-rule="evenodd" d="M198.116 504.931C201.348 498.166 205.313 491.797 210.023 485.767C210.867 484.687 207.462 484.983 206.855 485.759C202.047 491.914 198.003 498.443 194.705 505.344C194.289 506.214 197.659 505.886 198.116 504.931Z" fill="#56322B"/>
<path fill-rule="evenodd" clip-rule="evenodd" d="M241.101 400.095C250.501 407.905 259.486 416.078 268.074 424.603C269.115 425.637 272.36 424.401 271.203 423.253C262.464 414.577 253.303 406.273 243.735 398.324C242.62 397.398 239.649 398.888 241.101 400.095Z" fill="#845A47"/>
<path fill-rule="evenodd" clip-rule="evenodd" d="M398.564 445.283C394.577 410.152 391.294 373.395 370.482 343.375C367.434 338.978 363.335 334.387 357.579 333.833C351.822 333.278 346.041 339.94 350.046 343.675L386.588 435.393C386.962 466.705 387.863 541.412 388.236 572.724C388.264 575.067 388.318 577.509 389.526 579.591C390.916 581.99 393.61 583.525 396.181 584.946C402.262 588.307 408.341 591.666 414.421 595.027C418.253 597.144 423.055 594.176 422.211 590.222C411.972 542.248 404.081 493.873 398.564 445.283Z" fill="#845A47"/>
<path fill-rule="evenodd" clip-rule="evenodd" d="M418.918 535.118C418.718 534.349 418.482 533.563 417.936 532.945C416.75 531.61 414.57 531.49 412.663 531.483C409.354 531.47 406.045 531.459 402.735 531.447C400.963 531.441 398.503 532.12 398.859 533.672C398.166 534.885 398.035 536.279 398.408 537.6C399.122 540.117 399.147 542.919 401.271 544.608C402.205 545.352 403.417 545.745 404.617 546.067C409.112 547.269 413.873 547.676 418.542 547.258C418.976 547.218 419.438 547.159 419.757 546.893C420.147 546.563 420.188 546.028 420.193 545.548C420.234 542.042 419.805 538.532 418.918 535.118Z" fill="#CCB4A8"/>
<path fill-rule="evenodd" clip-rule="evenodd" d="M376.041 405.932C373.692 409.629 371.343 413.326 368.992 417.023C368.131 418.38 371.58 418.206 372.214 417.208C374.563 413.512 376.912 409.814 379.262 406.117C380.124 404.761 376.674 404.935 376.041 405.932Z" fill="#845A47"/>
<path fill-rule="evenodd" clip-rule="evenodd" d="M403.737 422.498C403.344 420.63 402.989 419.19 402.709 418.443C399.457 409.791 388.349 406.045 378.571 403.4C382.256 397.021 385.941 390.641 389.626 384.262C392.176 379.849 394.796 375.15 394.421 370.195C394.036 365.063 390.51 360.598 386.993 356.526C378.588 346.799 369.309 337.428 357.722 330.805C348.382 325.465 337.328 322.058 326.337 322.233C326.137 326.984 325.325 331.801 323.085 335.695C364.437 385.179 387.471 452.956 387.559 516.206C394.125 506.623 398.823 493.471 402.072 481.386C407.257 462.083 407.846 442.006 403.737 422.498Z" fill="#CCB4A8"/>
<path fill-rule="evenodd" clip-rule="evenodd" d="M308.839 222.962C307.729 224.012 307.398 225.625 308.042 226.953C308.637 228.181 309.883 228.872 311.289 229.032C314.214 229.565 317.566 227.273 317.406 224.537C317.189 220.787 311.111 220.81 308.839 222.962Z" fill="black"/>
<path fill-rule="evenodd" clip-rule="evenodd" d="M355.94 224.133C355.704 222.987 354.677 222.164 353.48 221.831C353.232 221.442 352.486 221.326 352.039 221.397C350.392 221.658 348.812 222.425 348.268 223.933C348.144 224.273 348.115 224.61 348.15 224.937C348.009 225.816 348.339 226.686 349.228 227.232C350.475 227.996 352.294 227.891 353.624 227.374C355.082 226.806 356.249 225.633 355.94 224.133Z" fill="black"/>
<path fill-rule="evenodd" clip-rule="evenodd" d="M301.679 208.81C304.422 205.392 308.607 203.724 313.276 204.635C314.089 204.793 317.061 203.623 316.08 203.431C309.492 202.145 302.256 204.411 298.303 209.337C298.053 209.65 301.081 209.556 301.679 208.81Z" fill="black"/>
<path fill-rule="evenodd" clip-rule="evenodd" d="M344.805 203.486C348.944 202.891 352.803 204.776 354.997 207.879C355.617 208.757 358.942 207.763 358.17 206.671C355.421 202.781 350.262 201.028 345.258 201.749C344.696 201.829 343.359 202.13 343.319 202.802C343.279 203.473 344.241 203.566 344.805 203.486Z" fill="black"/>
<path fill-rule="evenodd" clip-rule="evenodd" d="M293.736 264.783C316.634 281.31 349.785 278.636 369.346 259.131C370.773 257.707 367.496 257.284 366.499 258.28C348.123 276.602 317.713 278.449 296.383 263.055C295.245 262.234 292.23 263.696 293.736 264.783Z" fill="black"/>
<path fill-rule="evenodd" clip-rule="evenodd" d="M884.543 959.918C881.051 958.085 877.056 957.206 873.271 955.923C857.595 950.611 846.087 938.655 835.864 926.784C832.993 923.45 830.108 919.982 828.838 915.932C827.895 912.927 827.895 909.76 827.936 906.641C828.07 896.474 828.581 886.312 829.468 876.175L828.093 878.711C828.097 876.61 828.099 874.512 828.103 872.412C814.15 868.151 798.099 869.778 785.569 876.724C784.42 877.361 783.228 878.122 782.802 879.269C782.467 880.17 782.669 881.152 782.888 882.08C786.713 898.278 795.098 914.128 793.165 930.592C792.711 934.453 791.688 938.331 792.286 942.177C793.2 948.036 797.693 952.873 802.005 957.363C805.613 961.12 809.237 964.892 813.416 968.144C830.084 981.115 854.306 984.408 875.91 980.233C883.092 978.845 891.523 974.997 891.22 968.44C891.053 964.825 888.034 961.751 884.543 959.918Z" fill="#764C36"/>
<path fill-rule="evenodd" clip-rule="evenodd" d="M884.543 959.918C881.051 958.085 877.056 957.206 873.271 955.923C857.595 950.611 846.087 938.655 835.864 926.784C832.993 923.45 830.108 919.982 828.838 915.932C827.895 912.927 827.895 909.76 827.936 906.641C828.07 896.474 828.581 886.312 829.468 876.175L828.093 878.711C828.097 876.61 828.099 874.512 828.103 872.412C814.15 868.151 798.099 869.778 785.569 876.724C784.42 877.361 783.228 878.122 782.802 879.269C782.467 880.17 782.669 881.152 782.888 882.08C786.713 898.278 795.098 914.128 793.165 930.592C792.711 934.453 791.688 938.331 792.286 942.177C793.2 948.036 797.693 952.873 802.005 957.363C805.613 961.12 809.237 964.892 813.416 968.144C830.084 981.115 854.306 984.408 875.91 980.233C883.092 978.845 891.523 974.997 891.22 968.44C891.053 964.825 888.034 961.751 884.543 959.918Z" fill="black" fill-opacity="0.12"/>
<path fill-rule="evenodd" clip-rule="evenodd" d="M856.466 946.929C859.632 948.045 859.625 954.016 857.348 956.275C855.071 958.534 851.407 959.152 848.008 959.314C824.924 960.421 803.55 946.194 792.049 928.279C785.113 942.702 791.475 961.213 806.277 969.673C807.978 970.646 810.363 971.45 811.86 970.239C829.882 984.838 857.556 988.063 880.284 980.314C884.312 978.94 888.344 977.165 891.065 974.175C893.786 971.187 894.863 966.719 892.627 963.425C890.884 960.855 887.606 959.511 884.52 958.313C875.595 954.849 867.461 951.693 858.535 948.229" fill="#68183C"/>
<path fill-rule="evenodd" clip-rule="evenodd" d="M718.232 890.189C717.766 888.081 717.189 885.817 715.383 884.398C713.778 883.135 711.521 882.807 709.389 882.66C696.264 881.754 682.81 885.994 673.193 894.021C682.768 913.543 692.312 934.974 685.887 955.45C682.011 967.796 682.479 961.636 676.583 973.327C675.154 976.156 668.527 996.933 668.504 1000.04C668.457 1006.76 669.939 1011.35 676.818 1014.07C683.697 1016.79 691.449 1016.99 698.971 1017.03C706.123 1017.06 710.242 1015.52 716.204 1011.99C721.392 1008.92 725.345 1005.98 726.764 1000.56C728.183 995.143 728.795 989.96 728.979 984.4C730.521 937.72 724.99 920.778 718.232 890.189Z" fill="#764C36"/>
<path fill-rule="evenodd" clip-rule="evenodd" d="M676.582 973.327C675.733 979.9 682.616 985.387 689.674 987.395C702.146 990.94 717.714 986.223 722.931 975.498C724.624 972.018 725.188 968.198 725.735 964.436C726.724 957.619 727.714 950.8 728.706 943.983C731.147 955.805 730.602 967.937 730.048 979.949C729.491 992.048 728.06 1005.75 717.387 1013.21C710.394 1018.11 701.002 1019.06 692.135 1019.51C685.164 1019.87 677.516 1019.84 672.085 1015.92C665.531 1011.19 664.655 1002.39 666.781 995.107C668.907 987.825 673.4 981.257 675.852 974.056" fill="#AD0248"/>
<path fill-rule="evenodd" clip-rule="evenodd" d="M792.047 801.806C793.695 785.145 797.194 768.681 800.189 752.171C806.118 719.492 805.975 662.136 807.041 623.537C807.257 615.656 814.043 609.175 822.83 608.447L846.909 606.454C846.883 604.165 846.859 601.878 846.846 599.617C846.832 597.171 844.534 595.232 841.8 595.361C788.691 597.878 749.717 594.035 749.649 595.13H683.045C677.145 595.13 672.306 599.313 672.122 604.58C670.705 645.009 669.863 718.161 663.692 752.171C660.696 768.681 657.198 785.145 655.551 801.806C651.566 842.102 658.467 882.553 665.35 922.535C710.18 928.763 755.613 921.042 800.034 911.935C793.832 875.411 788.414 838.545 792.047 801.806Z" fill="#FFBF77"/>
<path fill-rule="evenodd" clip-rule="evenodd" d="M853.363 900.781C859.343 811.602 847.923 697.758 846.908 606.454L822.83 608.447C814.044 609.176 807.258 615.657 807.04 623.538C805.975 662.135 806.119 719.491 800.19 752.171C797.194 768.681 793.694 785.145 792.046 801.806C788.413 838.545 793.833 875.41 800.034 911.935C805.124 910.892 810.199 909.832 815.259 908.771C827.959 906.107 840.663 903.445 853.363 900.781Z" fill="#E57D42"/>
<path fill-rule="evenodd" clip-rule="evenodd" d="M671.392 917.218C675.66 876.318 689.78 837.42 711.878 801.48C722.625 784.001 734.44 766.996 743.576 748.764C752.52 730.917 758.538 712.035 762.85 692.896C767.845 670.714 770.596 648.197 773.322 625.722C773.514 624.131 770.139 624.473 769.965 625.906C765.083 666.188 760.077 707.313 742.077 744.922C733.285 763.293 721.584 780.367 710.729 797.788C699.734 815.433 690.163 833.625 683.063 852.822C675.317 873.767 670.327 895.444 668.037 917.402C667.87 918.999 671.243 918.652 671.392 917.218Z" fill="#E57D42"/>
<path fill-rule="evenodd" clip-rule="evenodd" d="M683.698 751.397C694.767 733.673 706.129 716.068 716.84 698.169C726.547 681.941 734.912 664.803 735.457 646.137C735.469 645.709 732.181 646.081 732.156 646.927C731.596 666.146 722.679 683.669 712.62 700.301C702.141 717.625 691.183 734.727 680.445 751.923C680.221 752.28 683.234 752.138 683.698 751.397Z" fill="#E57D42"/>
<path fill-rule="evenodd" clip-rule="evenodd" d="M846.2 846.163L834.799 799.33C830.96 783.562 826.604 767.789 824.339 751.761C819.867 720.12 830.587 688.98 827.448 657.38C827.354 656.429 824.528 656.994 824.633 658.054C827.77 689.648 817.051 720.788 821.524 752.435C823.749 768.182 828.009 783.676 831.78 799.168C835.649 815.057 839.518 830.947 843.385 846.836C843.624 847.821 846.448 847.181 846.2 846.163Z" fill="#FFBF77"/>
<path fill-rule="evenodd" clip-rule="evenodd" d="M770.719 359.495C770.014 359.163 769.286 358.773 768.921 358.14C768.612 357.606 768.61 356.978 768.613 356.378C768.655 349.915 768.696 343.451 768.736 336.987C756.933 333.475 744.698 331.12 732.322 329.978C730.171 329.78 725.408 326.687 725.408 326.687C725.68 335.958 725.5 345.24 724.871 354.497C718.224 355.469 711.489 355.953 704.755 355.941C709.258 360.219 713.762 364.497 718.266 368.774C728.584 378.574 740.421 389.04 755.452 389.859C763.682 390.309 772.071 387.553 778.014 382.445C783.958 377.338 787.367 369.957 787.186 362.592C781.517 362.947 775.746 361.861 770.719 359.495Z" fill="#764C36"/>
<path fill-rule="evenodd" clip-rule="evenodd" d="M725.172 331.948C724.768 332.791 725.021 333.758 725.3 334.64C727.246 340.799 730.207 346.843 735.096 351.518C739.985 356.193 747.025 359.353 754.168 358.877C756.016 358.754 757.865 358.386 759.5 357.604C760.859 356.954 762.039 356.03 763.057 354.996C768.758 349.196 768.995 340.716 768.933 332.997C768.929 332.682 768.912 332.333 768.667 332.107C768.472 331.927 768.181 331.868 767.906 331.819C754.718 329.451 741.249 328.33 727.799 328.483C726.724 328.495 725.59 328.531 724.68 329.04C723.77 329.55 723.226 330.71 723.83 331.504" fill="black" fill-opacity="0.12"/>
<path fill-rule="evenodd" clip-rule="evenodd" d="M685.558 262.847C679.212 256.258 666.621 256.366 659.356 262.147C652.091 267.927 650.152 277.916 653.268 286.149C658.654 300.381 685.733 308.797 692.102 290.832C691.129 293.579 698.173 304.238 699.788 307.143C703.16 313.208 707.323 318.883 713.013 323.421C724.813 332.828 740.975 337.7 756.414 339.56C776.405 341.971 797.647 339.294 814.603 329.532C832.753 319.085 844.62 301.235 849.289 282.405C853.958 263.573 851.943 243.815 846.659 225.115C844.178 216.335 840.879 207.528 834.695 200.355C829.313 194.112 821.986 189.403 814.24 185.635C786.498 172.142 751.151 170.518 723.351 183.914C692.747 198.66 684.799 261.116 685.614 260.235" fill="#764C36"/>
<path fill-rule="evenodd" clip-rule="evenodd" d="M679.447 275.757C677.051 277.011 676.401 278.471 674.591 280.366C673.323 281.695 670.424 284.619 670.94 286.529C671.957 290.297 680.194 291.53 683.734 291.929C685.073 292.08 687.204 290.42 684.992 290.171C681.255 289.75 673.255 288.306 675.492 283.21C676.711 280.429 680.283 278.147 683.014 276.718C683.336 276.55 683.936 275.994 683.506 275.648C676.138 269.707 667.561 265.911 658.872 272.236C657.391 273.313 660.66 273.432 661.539 272.791C668.358 267.828 679.285 276.115 679.447 275.757Z" fill="#764C36"/>
<path fill-rule="evenodd" clip-rule="evenodd" d="M679.447 275.757C677.051 277.011 676.401 278.471 674.591 280.366C673.323 281.695 670.424 284.619 670.94 286.529C671.957 290.297 680.194 291.53 683.734 291.929C685.073 292.08 687.204 290.42 684.992 290.171C681.255 289.75 673.255 288.306 675.492 283.21C676.711 280.429 680.283 278.147 683.014 276.718C683.336 276.55 683.936 275.994 683.506 275.648C676.138 269.707 667.561 265.911 658.872 272.236C657.391 273.313 660.66 273.432 661.539 272.791C668.358 267.828 679.285 276.115 679.447 275.757Z" fill="black" fill-opacity="0.12"/>
<path fill-rule="evenodd" clip-rule="evenodd" d="M723.349 183.914C751.15 170.518 786.497 172.142 814.24 185.636C820.017 188.446 825.558 191.781 830.237 195.885C823.069 189.346 814.964 183.626 806.158 178.963C778.192 164.15 743.696 159.937 712.001 166.407L713.15 168.832C712.57 168.062 711.992 167.292 711.415 166.522C711.608 166.481 711.805 166.446 712.001 166.407L711.569 165.496C697.339 165.799 683.822 171.861 673.131 180.258C662.441 188.654 654.264 199.281 646.808 210.115C646.76 210.185 646.711 210.256 646.663 210.326C643.741 213.081 640.464 215.541 636.815 217.612C627.359 222.98 617.307 223.896 606.536 225.528C588.828 228.212 576.465 238.829 565.096 250.519C563.743 251.911 566.896 252.304 567.841 251.333C574.796 244.181 582.163 236.96 591.484 232.229C600.988 227.405 611.387 227.587 621.728 225.437C629.111 223.903 635.958 220.98 641.942 217.016C638.106 222.131 633.73 226.853 627.726 229.712C618.355 234.174 606.76 233.218 597.115 237.187C586.887 241.397 580.315 250.537 575.988 259.824C571.659 269.112 568.969 279.035 563.536 287.847C560.002 293.579 555.353 298.759 552.361 304.731C549.37 310.703 548.247 317.959 551.911 323.624C561.644 318.899 573.711 318.197 584.048 321.754C598.007 326.561 608.303 338.42 622.89 341.385C639.151 344.691 656.201 335.984 672.496 339.155C679.765 340.571 687.766 344.2 694.06 340.657C696.239 339.43 697.804 337.487 699.916 336.171C705.968 332.404 714.135 334.752 721.489 335.264C722.815 335.355 724.723 334.223 723.679 333.485C724.181 333.774 724.691 334.048 725.206 334.314C724.973 333.523 724.815 332.689 725.172 331.948L723.83 331.502C723.534 331.115 723.516 330.637 723.679 330.193C719.865 328.256 716.269 326.017 713.013 323.422C707.322 318.884 703.16 313.208 699.789 307.142C698.174 304.239 691.129 293.579 692.104 290.832C685.734 308.797 658.654 300.382 653.269 286.149C650.153 277.916 652.092 267.928 659.357 262.147C665.495 257.262 675.426 256.448 682.188 260.282C675.565 230.349 693.464 198.316 723.349 183.914Z" fill="#0ED1B1"/>
<path fill-rule="evenodd" clip-rule="evenodd" d="M877.256 301.459C875.429 294.982 871.794 289.231 869.282 282.988C866.499 276.075 864.765 268.698 863.3 261.274C862.897 256.9 862.305 252.553 861.391 248.26C857.417 229.585 847.146 212.195 832.709 198.215C833.395 198.909 834.061 199.619 834.695 200.355C840.879 207.529 844.178 216.335 846.659 225.115C851.942 243.816 853.958 263.574 849.288 282.405C844.62 301.236 832.752 319.085 814.603 329.533C801.102 337.305 784.885 340.573 768.744 340.371C768.735 340.481 768.722 340.591 768.711 340.701C768.709 341.308 768.705 341.915 768.701 342.52C776.048 342.876 783.35 342.525 790.285 340.441C794.456 339.188 798.46 337.317 802.832 336.877C810.154 336.14 817.246 339.509 824.61 339.713C841.216 340.173 855.416 324.771 871.729 327.586C864.847 312.165 864.681 295.438 864.205 278.684C864.574 279.848 864.954 281.007 865.366 282.155C867.404 287.837 870.789 293.036 872.826 298.721C875.321 305.69 876.189 312.896 875.724 320.19C875.633 321.629 878.977 321.155 879.055 319.923C879.451 313.703 878.963 307.516 877.256 301.459Z" fill="#0ED1B1"/>
<path fill-rule="evenodd" clip-rule="evenodd" d="M789.529 154.027L812.756 131.601V164.812C812.756 164.812 801.948 162.209 789.529 154.027Z" fill="#B3B3C6"/>
<path fill-rule="evenodd" clip-rule="evenodd" d="M672.939 256.417C670.211 256.434 669.255 253.214 669.184 250.778C668.439 225.181 672.445 197.895 690.624 178.099C710.86 156.065 745.519 147.694 777.212 150.96C796.597 152.958 817.528 160.472 825.096 176.54C793.366 173.705 760.014 180.474 734.887 198.013C709.757 215.552 692.778 244.386 696.257 272.705C688.779 261.49 672.939 256.417 672.939 256.417Z" fill="#0ED1B1"/>
<path fill-rule="evenodd" clip-rule="evenodd" d="M832.239 197.755C832.27 197.786 832.305 197.815 832.336 197.847C832.305 197.816 832.271 197.786 832.239 197.755Z" fill="#DD5252"/>
<path fill-rule="evenodd" clip-rule="evenodd" d="M713.15 168.832L712.001 166.406C711.805 166.446 711.608 166.481 711.415 166.522C711.992 167.292 712.57 168.062 713.15 168.832Z" fill="#DD5252"/>
<path fill-rule="evenodd" clip-rule="evenodd" d="M768.512 342.512C768.576 342.515 768.637 342.518 768.701 342.521C768.705 341.915 768.709 341.308 768.713 340.702C768.659 341.308 768.592 341.912 768.512 342.512Z" fill="#764C36"/>
<path fill-rule="evenodd" clip-rule="evenodd" d="M725.208 334.314C725.239 334.422 725.268 334.533 725.302 334.64C725.369 334.853 725.447 335.063 725.516 335.275C725.516 335.008 725.522 334.742 725.522 334.475C725.418 334.421 725.312 334.368 725.208 334.314Z" fill="#D37F7A"/>
<path fill-rule="evenodd" clip-rule="evenodd" d="M768.712 340.701C768.722 340.591 768.736 340.481 768.744 340.37H768.714C768.714 340.481 768.713 340.591 768.712 340.701Z" fill="#D37F7A"/>
<path fill-rule="evenodd" clip-rule="evenodd" d="M832.335 197.847C832.462 197.968 832.585 198.093 832.709 198.215C832.587 198.091 832.46 197.97 832.335 197.847Z" fill="#764C36"/>
<path fill-rule="evenodd" clip-rule="evenodd" d="M830.238 195.884C830.913 196.5 831.579 197.125 832.239 197.755C831.59 197.116 830.926 196.489 830.238 195.884Z" fill="#764C36"/>
<path fill-rule="evenodd" clip-rule="evenodd" d="M692.021 233.369C725.756 222.606 762.362 222.035 798.184 222.201C820.323 222.304 842.916 222.71 863.805 229.268C861.961 214.672 858.449 199.793 849.251 187.618C835.351 169.218 809.87 159.602 785.032 159.029C784.783 159.024 784.534 159.018 784.287 159.013C740.578 158.285 702.811 185.736 693.521 223.899C692.687 227.329 692.145 230.543 692.021 233.369Z" fill="#0ED1B1"/>
<path fill-rule="evenodd" clip-rule="evenodd" d="M761.072 146.58C742.063 146.279 723.23 151.711 707.045 160.626C699.942 164.538 693.246 169.16 687.915 174.892C678.2 185.336 673.732 199.396 675.265 212.876C675.27 224.324 679.11 235.782 686.345 245.242C692.601 208.225 724.045 175.542 764.071 164.454C779.921 160.064 801.462 158.705 816.583 164.811C803.02 152.908 780.083 146.882 761.072 146.58Z" fill="#8280CE"/>
<path fill-rule="evenodd" clip-rule="evenodd" d="M748.986 180.602C751.711 195.981 750.536 211.433 745.474 226.341C745.291 226.88 748.476 226.547 748.725 225.81C753.811 210.833 755.026 195.276 752.285 179.812C752.187 179.251 748.858 179.88 748.986 180.602Z" fill="#5DF0C2"/>
<path fill-rule="evenodd" clip-rule="evenodd" d="M774.725 173.803C787.681 188.501 794.866 206.361 795.244 225.072C795.274 226.609 798.613 226.159 798.586 224.844C798.2 205.754 790.973 187.512 777.747 172.507C776.825 171.461 773.683 172.62 774.725 173.803Z" fill="#5DF0C2"/>
<path fill-rule="evenodd" clip-rule="evenodd" d="M816.259 185.987C826.282 198.552 832.206 213.021 833.702 228.382C833.815 229.548 837.127 228.877 837.003 227.592C835.491 212.063 829.421 197.443 819.301 184.756C818.539 183.802 815.363 184.863 816.259 185.987Z" fill="#5DF0C2"/>
<path fill-rule="evenodd" clip-rule="evenodd" d="M809.416 165.445C843.06 175.738 868.652 202.236 875.238 233.442C875.403 234.232 878.724 233.539 878.537 232.653C871.897 201.19 845.978 174.543 812.09 164.177C811.243 163.917 808.265 165.093 809.416 165.445Z" fill="#5DF0C2"/>
<path fill-rule="evenodd" clip-rule="evenodd" d="M582.17 325.023C584.676 312.446 596.295 305.029 607.473 298.432C609.324 297.341 606.443 297.088 605.458 297.67C593.806 304.548 581.494 312.308 578.88 325.427C578.675 326.461 581.984 325.96 582.17 325.023Z" fill="#5DF0C2"/>
<path fill-rule="evenodd" clip-rule="evenodd" d="M622.375 325.551C617.569 332.817 614.13 340.505 612.007 348.728C611.808 349.503 615.067 349.059 615.275 348.251C617.397 340.028 620.836 332.339 625.642 325.074C625.959 324.595 622.892 324.771 622.375 325.551Z" fill="#5DF0C2"/>
<path fill-rule="evenodd" clip-rule="evenodd" d="M666.524 333.586C665.036 337.6 664.273 341.686 664.235 345.917C664.232 346.263 667.529 345.896 667.536 345.126C667.572 340.983 668.308 336.965 669.768 333.028C669.923 332.609 666.785 332.881 666.524 333.586Z" fill="#5DF0C2"/>
<path fill-rule="evenodd" clip-rule="evenodd" d="M694.358 188.444C694.358 188.444 684.346 123.726 689.921 125.252C695.497 126.778 725.206 160.931 725.206 160.931C725.206 160.931 716.565 168.832 694.358 188.444Z" fill="#B3B3C6"/>
<path fill-rule="evenodd" clip-rule="evenodd" d="M743.864 156.06C743.864 156.06 749.558 113.843 752.405 110.788C755.252 107.733 775.2 153.208 775.2 153.208C775.2 153.208 760.723 153.075 743.864 156.06Z" fill="#B3B3C6"/>
<path fill-rule="evenodd" clip-rule="evenodd" d="M687.415 517.017C682.502 508.436 674.389 500.743 673.778 491.12C673.602 488.321 674.035 485.295 672.394 482.907C670.861 480.677 667.924 479.613 665.184 478.691C652.784 474.516 640.18 469.999 627.157 467.617C614.765 465.35 612.944 466.342 607.488 476.043C597.284 494.187 592.583 515.565 592.476 535.76C592.469 536.992 592.515 538.319 593.345 539.303C594.093 540.187 595.324 540.608 596.492 540.982C613.448 546.406 631.406 550.574 649.527 550.583C653.119 550.585 692.447 544.92 692.522 544.451C694.028 535.129 692.216 525.402 687.415 517.017Z" fill="#764C36"/>
<path fill-rule="evenodd" clip-rule="evenodd" d="M635.193 530.335C644.11 524.991 653.026 519.645 661.943 514.301C663.358 513.452 660.063 513.665 659.375 514.077C650.458 519.421 641.541 524.766 632.624 530.111C631.209 530.959 634.505 530.746 635.193 530.335Z" fill="#764C36"/>
<path fill-rule="evenodd" clip-rule="evenodd" d="M635.193 530.335C644.11 524.991 653.026 519.645 661.943 514.301C663.358 513.452 660.063 513.665 659.375 514.077C650.458 519.421 641.541 524.766 632.624 530.111C631.209 530.959 634.505 530.746 635.193 530.335Z" fill="black" fill-opacity="0.12"/>
<path fill-rule="evenodd" clip-rule="evenodd" d="M933.061 426.626C932.541 418.437 923.923 412.563 914.971 414.391C904.082 416.617 893.041 418.25 881.929 419.278L879.234 411.619C874.084 410.792 869.068 413.738 863.837 413.765C855.802 413.806 849.77 407.121 846.689 400.492C843.608 393.862 842.002 386.442 836.747 381.012C825.459 369.351 802.162 371.524 792.226 358.917C779.873 368.526 762.836 373.147 746.589 371.294C730.342 369.441 715.15 361.146 705.893 349.074C705.893 349.074 675.346 354.234 661.097 362.166C661.014 362.211 660.932 362.262 660.849 362.309C637.321 372.481 621.985 394.731 613.258 417.14C603.706 441.667 599.864 467.886 588.327 491.721C603.331 491.994 615.659 501.717 628.954 507.937C640.95 513.55 654.525 516.366 668.062 516.262C668.861 519.565 669.506 522.894 669.921 526.267C673.642 556.477 659.18 586.036 656.737 616.351C656.58 618.318 656.512 620.437 657.71 622.095C659.27 624.252 662.413 624.914 665.252 625.32C723.641 633.681 783.857 610.914 841.852 621.234C847.434 577.644 846.391 533.379 838.76 490.038C847.621 503.289 864.924 510.676 882.114 512.251C899.301 513.826 916.551 510.346 933.168 506.112C934.774 479.642 934.738 453.092 933.061 426.626Z" fill="#2F7EAF"/>
<path fill-rule="evenodd" clip-rule="evenodd" d="M826.117 393.684C828.281 421.956 831.553 450.144 835.926 478.211C836.054 479.023 839.377 478.378 839.228 477.421C834.854 449.353 831.583 421.166 829.418 392.894C829.36 392.123 826.042 392.691 826.117 393.684Z" fill="#1A5C89"/>
<path fill-rule="evenodd" clip-rule="evenodd" d="M856.835 422.826C852.87 434.145 850.307 445.718 849.146 457.533C849.03 458.722 852.35 458.166 852.446 457.165C853.606 445.351 856.17 433.778 860.135 422.459C860.495 421.433 857.186 421.824 856.835 422.826Z" fill="#1A5C89"/>
<path fill-rule="evenodd" clip-rule="evenodd" d="M866.867 426.285C868.644 439.824 870.419 453.363 872.196 466.901C872.311 467.78 875.63 467.144 875.495 466.111C873.72 452.572 871.944 439.033 870.167 425.496C870.052 424.617 866.733 425.252 866.867 426.285Z" fill="#1A5C89"/>
<path fill-rule="evenodd" clip-rule="evenodd" d="M707.832 370.96C734.888 386.093 771.447 391.924 797.526 371.82C798.941 370.729 795.678 370.78 794.893 371.384C770.144 390.465 735.828 383.752 710.468 369.568C709.596 369.08 706.54 370.239 707.832 370.96Z" fill="#1A5C89"/>
<path fill-rule="evenodd" clip-rule="evenodd" d="M686.133 607.855C729.954 583.924 776.918 564.908 825.964 551.289C827.979 550.73 827.357 548.559 825.315 549.126C775.982 562.824 728.712 581.908 684.631 605.978C682.736 607.014 684.47 608.764 686.133 607.855Z" fill="#1A5C89"/>
<path fill-rule="evenodd" clip-rule="evenodd" d="M809.258 565.443C792.563 571.229 775.87 577.016 759.176 582.802C757.06 583.536 758.941 584.987 760.599 584.413C777.293 578.626 793.987 572.839 810.68 567.052C812.796 566.319 810.916 564.869 809.258 565.443Z" fill="#1A5C89"/>
<path fill-rule="evenodd" clip-rule="evenodd" d="M689.552 498.67C688.919 474.625 693.558 450.904 703.16 428.442C707.282 418.797 710.764 409.548 707.937 399.187C705.236 389.293 698.448 380.713 690.952 373.237C690.324 372.613 687.204 373.648 687.86 374.301C695.666 382.086 702.732 391.135 705.034 401.575C707.61 413.265 701.934 423.465 697.692 434.188C689.411 455.127 685.668 477.28 686.253 499.46C686.27 500.127 689.577 499.63 689.552 498.67Z" fill="#1A5C89"/>
<path fill-rule="evenodd" clip-rule="evenodd" d="M663.912 368.09C675.832 374.067 684.28 383.854 687.73 395.664C687.912 396.29 691.218 395.52 691.03 394.875C687.557 382.982 679.018 373.108 667.025 367.095C666.209 366.686 663.532 367.899 663.912 368.09Z" fill="#1A5C89"/>
<path fill-rule="evenodd" clip-rule="evenodd" d="M935.514 414.516C933.171 413.421 930.416 413.288 927.78 413.444C924.395 413.644 921.054 414.303 917.875 415.359L919.323 414.557C914.785 414.109 910.287 416.286 907.332 419.395C904.376 422.506 902.742 426.439 901.524 430.37C893.361 456.759 902.993 486.897 925.523 505.453C926.247 506.051 927.129 506.677 928.102 506.547C929.402 506.371 929.981 505.021 930.302 503.883C937.102 479.843 940.999 455.148 941.905 430.366C942.122 424.429 941.404 417.27 935.514 414.516Z" fill="#1A5C89"/>
<path fill-rule="evenodd" clip-rule="evenodd" d="M824.402 449.614C823.397 448.877 822.022 448.73 820.728 448.613C815.703 448.157 810.678 447.701 805.652 447.245C803.803 447.077 801.859 446.879 800.347 445.91C798.456 444.698 797.665 442.567 796.925 440.595C793.459 431.365 788.638 422.541 782.624 414.422C781.853 413.38 780.977 412.289 779.663 411.864C776.495 410.841 773.832 414.135 772.465 416.886C767.369 427.143 762.272 437.398 757.177 447.653L756.382 447.815C743.311 449.109 730.637 453.479 719.981 460.364C723.805 467.502 733.524 469.996 742.007 472.273C743.996 472.806 746.114 473.455 747.329 474.958C748.534 476.447 748.572 478.422 748.561 480.259C748.513 489.222 748.465 498.184 748.417 507.146C748.41 508.225 748.487 509.464 749.439 510.128C750.625 510.955 752.343 510.363 753.662 509.718C760.411 506.421 766.649 502.292 772.147 497.485C774.032 495.837 775.902 494.064 778.328 493.138C782.803 491.426 788.034 493.017 792.099 495.407C796.163 497.798 799.65 500.981 804 502.932C806.741 504.162 810.56 504.667 812.479 502.528C813.463 501.433 813.64 499.936 813.66 498.532C813.84 487.019 806.814 473.975 814.797 464.937C817.972 461.344 823.143 459.139 825.163 454.933C826.01 453.169 826.061 450.833 824.402 449.614Z" fill="white"/>
<path fill-rule="evenodd" clip-rule="evenodd" d="M983.285 390.529C979.54 382.932 973.518 374.03 964.253 374.649C960.96 374.869 957.02 376.174 954.795 373.996C953.934 373.152 953.624 371.982 953.345 370.868C951.958 365.314 950.571 359.76 949.184 354.206C948.136 350.009 946.279 345.027 941.275 344.428C938.939 344.148 936.635 345.021 934.924 346.471C928.196 352.175 931.118 361.56 934.366 369.025C938.179 377.792 941.991 386.558 945.805 395.324C946.551 397.04 947.31 398.836 947.111 400.668C946.77 403.82 943.752 406.154 940.817 407.929C935.859 410.926 930.468 413.347 924.822 415.121C921.456 416.177 918.418 417.927 915.875 420.161L914.389 421.465C907.727 427.315 905.036 436.074 908.058 443.97C908.223 444.401 908.4 444.826 908.591 445.246C909.31 446.825 910.283 448.412 911.908 449.307C913.253 450.049 914.888 450.229 916.468 450.285C927.674 450.684 938.297 445.793 947.343 439.871C956.391 433.948 964.507 426.855 974.162 421.757C978.135 419.659 982.494 417.797 985.197 414.456C990.697 407.653 987.07 398.21 983.285 390.529Z" fill="#764C36"/>
<path fill-rule="evenodd" clip-rule="evenodd" d="M1012.16 385.722C1006.66 381.163 999.608 378.125 992.189 377.123C996.434 375.082 1001.59 375.891 1006.41 375.624C1011.22 375.357 1016.84 372.926 1016.94 368.619C1016.97 367.338 1016.48 366.086 1015.79 364.96C1011.91 358.6 1002.62 356.524 994.553 357.207C987.581 357.796 980.782 359.962 974.967 363.447C973.865 359.854 976.353 356.12 979.453 353.628C982.553 351.137 986.345 349.352 989.164 346.606C991.981 343.86 993.633 339.573 991.433 336.408C988.324 331.935 980.534 333.134 975.657 336.09C961.02 344.967 956.94 362.303 954.056 377.898L949.801 378.973C953.337 390.367 959.507 401.105 967.81 410.314C970.292 413.066 973.566 415.915 977.51 415.64C980.807 415.409 983.385 413.027 985.22 410.57C988.563 406.088 990.552 400.808 990.92 395.432C994.775 396.2 998.63 396.967 1002.49 397.735C1007.46 398.727 1014.16 398.986 1016.1 394.773C1017.57 391.581 1014.99 388.07 1012.16 385.722Z" fill="#764C36"/>
<path fill-rule="evenodd" clip-rule="evenodd" d="M959.285 376.652C968.721 377.958 983.334 393.282 973.52 400.876C972.104 401.972 975.365 401.931 976.154 401.321C987.155 392.808 972.2 376.597 961.317 375.09C960.305 374.95 957.447 376.397 959.285 376.652Z" fill="#764C36"/>
<path fill-rule="evenodd" clip-rule="evenodd" d="M983.391 377.063C987.205 376.132 991.045 375.754 994.994 375.941C996.498 376.012 998.41 374.045 996.179 373.939C991.651 373.724 987.21 374.138 982.834 375.206C980.821 375.697 981.365 377.558 983.391 377.063Z" fill="#764C36"/>
<path fill-rule="evenodd" clip-rule="evenodd" d="M959.285 376.652C968.721 377.958 983.334 393.282 973.52 400.876C972.104 401.972 975.365 401.931 976.154 401.321C987.155 392.808 972.2 376.597 961.317 375.09C960.305 374.95 957.447 376.397 959.285 376.652Z" fill="black" fill-opacity="0.12"/>
<path fill-rule="evenodd" clip-rule="evenodd" d="M983.391 377.063C987.205 376.132 991.045 375.754 994.994 375.941C996.498 376.012 998.41 374.045 996.179 373.939C991.651 373.724 987.21 374.138 982.834 375.206C980.821 375.697 981.365 377.558 983.391 377.063Z" fill="black" fill-opacity="0.12"/>
<path fill-rule="evenodd" clip-rule="evenodd" d="M760.454 254.367C759.384 255.379 759.065 256.935 759.686 258.216C760.26 259.401 761.462 260.068 762.819 260.222C765.641 260.737 768.874 258.525 768.72 255.886C768.511 252.268 762.647 252.29 760.454 254.367Z" fill="black"/>
<path fill-rule="evenodd" clip-rule="evenodd" d="M805.894 255.496C805.667 254.39 804.676 253.596 803.521 253.275C803.282 252.9 802.562 252.788 802.131 252.856C800.542 253.108 799.018 253.848 798.493 255.303C798.374 255.63 798.345 255.956 798.379 256.271C798.243 257.119 798.562 257.958 799.419 258.485C800.622 259.223 802.377 259.121 803.66 258.623C805.067 258.074 806.193 256.943 805.894 255.496Z" fill="black"/>
<path fill-rule="evenodd" clip-rule="evenodd" d="M753.547 240.713C756.193 237.415 760.231 235.806 764.735 236.685C765.519 236.838 768.387 235.708 767.441 235.523C761.085 234.283 754.104 236.469 750.29 241.222C750.048 241.523 752.969 241.432 753.547 240.713Z" fill="black"/>
<path fill-rule="evenodd" clip-rule="evenodd" d="M795.153 235.576C799.146 235.002 802.869 236.821 804.986 239.815C805.584 240.662 808.792 239.703 808.047 238.65C805.395 234.896 800.418 233.205 795.591 233.9C795.048 233.978 793.758 234.269 793.719 234.917C793.681 235.564 794.609 235.653 795.153 235.576Z" fill="black"/>
<path fill-rule="evenodd" clip-rule="evenodd" d="M745.884 294.713C767.975 310.657 799.957 308.078 818.829 289.26C820.205 287.886 817.044 287.478 816.082 288.439C798.354 306.115 769.016 307.897 748.437 293.046C747.34 292.254 744.431 293.664 745.884 294.713Z" fill="black"/>
</svg>
